<?xml version="1.0" standalone="no"?>
<!DOCTYPE svg PUBLIC "-//W3C//DTD SVG 20010904//EN"
 "http://www.w3.org/TR/2001/REC-SVG-20010904/DTD/svg10.dtd">
<svg version="1.0" xmlns="http://www.w3.org/2000/svg"
 width="1080.000000pt" height="1080.000000pt" viewBox="0 0 1080.000000 1080.000000"
 preserveAspectRatio="xMidYMid meet">

<g transform="translate(0.000000,1080.000000) scale(0.100000,-0.100000)"
fill="#000000" stroke="none">
<path d="M2430 6430 l0 -370 -130 0 -130 0 0 -259 0 -259 -65 -7 c-106 -12
-238 20 -300 73 -67 56 -108 152 -121 280 l-7 72 -349 0 -349 0 5 -42 c3 -24
8 -76 11 -117 22 -262 162 -480 375 -584 179 -88 380 -127 651 -127 l149 0 0
-356 0 -356 723 5 c582 4 743 8 832 20 504 72 744 227 827 536 28 105 31 425
4 546 -87 394 -486 575 -1268 575 l-158 0 0 370 0 370 -350 0 -350 0 0 -370z
m969 -790 c243 -25 389 -111 437 -257 25 -77 26 -244 1 -324 -37 -122 -149
-202 -336 -241 -81 -17 -138 -20 -361 -22 l-265 -1 -3 245 -2 245 61 65 c55
59 112 157 158 273 11 27 11 27 110 27 54 0 144 -5 200 -10z"/>
<path d="M8305 6263 c-33 -26 -53 -44 -45 -41 60 21 148 51 160 55 13 4 13 5
0 12 -40 22 -56 19 -115 -26z"/>
<path d="M9147 6138 c-22 -85 -21 -90 3 -51 31 51 71 66 188 71 l104 4 -12
-22 c-6 -12 -77 -127 -156 -256 -79 -129 -144 -236 -144 -239 0 -3 92 -5 204
-5 l204 0 6 31 c3 17 6 43 5 58 0 24 -1 24 -9 5 -4 -11 -22 -33 -40 -47 -30
-26 -36 -27 -155 -27 l-123 0 150 248 c83 136 153 253 155 260 4 9 -35 12
-175 12 -133 0 -181 3 -184 12 -3 7 -12 -18 -21 -54z"/>
<path d="M5357 6179 c-79 -19 -154 -75 -190 -143 -17 -33 -22 -58 -22 -126 0
-73 4 -92 27 -136 89 -170 319 -191 453 -42 81 90 95 202 40 315 -55 112 -175
163 -308 132z m157 -42 c20 -16 49 -52 64 -80 25 -48 27 -61 27 -162 0 -99 -3
-115 -25 -155 -14 -24 -41 -55 -60 -68 -49 -34 -142 -28 -193 11 -72 55 -116
202 -97 321 11 71 35 114 81 144 29 20 44 23 100 20 54 -3 73 -9 103 -31z"/>
<path d="M6594 6176 c-148 -36 -233 -147 -222 -290 15 -187 183 -285 418 -244
l75 13 5 89 c4 77 8 90 25 97 11 4 -28 7 -90 7 -66 -1 -94 -3 -70 -7 51 -8 68
-37 61 -105 -8 -70 -26 -86 -99 -86 -145 0 -240 106 -241 270 -1 156 77 250
209 250 81 0 137 -36 178 -115 16 -29 16 -29 10 35 -3 36 -11 68 -17 72 -19
12 -105 28 -149 27 -23 0 -65 -6 -93 -13z"/>
<path d="M5875 6170 c-55 -3 -88 -7 -73 -8 15 -1 32 -11 38 -21 6 -12 10 -107
10 -238 0 -234 -3 -248 -50 -256 -14 -2 25 -4 85 -4 61 0 99 2 85 4 -43 8 -50
28 -50 145 l0 108 40 0 c39 0 41 -2 95 -85 30 -47 73 -105 96 -130 l42 -45 71
0 71 0 -40 19 c-22 10 -60 40 -85 67 -42 45 -140 176 -140 186 0 3 18 23 39
46 66 69 64 154 -4 193 -38 21 -104 27 -230 19z m170 -33 c44 -37 47 -155 4
-198 -14 -14 -33 -19 -74 -19 l-55 0 0 104 c0 82 3 108 16 120 23 23 78 20
109 -7z"/>
<path d="M7658 6165 l32 -14 0 -245 0 -245 -32 -10 c-24 -8 10 -10 127 -7 178
3 207 11 274 71 73 66 105 193 72 289 -17 49 -73 112 -122 137 -50 25 -149 39
-279 38 -99 0 -103 -1 -72 -14z m276 -19 c137 -57 171 -334 54 -443 -33 -31
-71 -43 -133 -43 -86 0 -85 -4 -85 255 0 203 2 225 18 234 25 15 107 13 146
-3z"/>
<path d="M8753 6140 c-11 -25 -53 -119 -93 -210 -105 -240 -116 -259 -153
-275 -30 -13 -26 -14 68 -14 90 0 97 1 65 12 -53 18 -60 51 -26 131 l28 66
107 0 106 0 39 -85 c41 -89 41 -111 4 -118 -13 -2 24 -5 82 -5 64 0 97 2 85 8
-33 13 -44 31 -171 289 l-121 246 -20 -45z m46 -182 l40 -88 -89 0 c-50 0 -90
4 -90 9 0 24 82 183 90 175 5 -5 27 -48 49 -96z"/>
<path d="M4879 6160 c18 -4 38 -14 42 -22 15 -22 6 -639 -9 -665 -18 -32 -44
-29 -64 7 -21 37 -63 42 -74 8 -11 -35 30 -62 84 -54 56 8 75 19 109 63 l28
36 5 303 c3 182 9 307 15 313 6 5 19 11 30 14 11 3 -29 5 -90 5 -76 0 -100 -3
-76 -8z"/>
<path d="M7018 6160 c22 -9 22 -10 22 -255 0 -245 0 -246 -22 -255 -15 -6 38
-9 155 -9 l177 -1 0 34 c0 18 2 49 6 67 l5 34 -14 -30 c-8 -17 -29 -43 -47
-58 -30 -26 -39 -28 -104 -25 l-71 3 -3 123 -3 122 61 0 c69 0 97 -11 110 -43
6 -16 9 -2 9 48 0 57 -2 66 -11 50 -18 -31 -28 -35 -101 -35 l-68 0 3 108 3
107 62 3 c72 3 96 -7 123 -51 l20 -32 0 53 0 52 -167 -1 c-111 0 -160 -3 -145
-9z"/>
<path d="M8258 6159 l32 -10 -2 -247 -3 -247 -30 -6 c-16 -4 20 -7 80 -6 61 0
99 2 85 4 -50 9 -50 11 -50 252 0 243 2 256 50 264 14 2 -24 4 -85 5 -85 0
-103 -2 -77 -9z"/>
<path d="M4957 5263 c19 -2 46 -17 63 -34 25 -25 30 -27 30 -12 0 33 -16 44
-71 47 -30 2 -39 2 -22 -1z"/>
<path d="M5482 5263 c15 -2 37 -16 48 -30 l20 -26 0 25 c0 27 -23 39 -70 36
-24 -1 -24 -1 2 -5z"/>
<path d="M6084 5261 c92 -20 132 -143 79 -245 l-16 -30 23 15 c55 37 75 124
42 188 -24 49 -62 73 -118 77 -48 3 -48 3 -10 -5z"/>
<path d="M7848 5262 l-128 -3 0 -31 0 -31 21 27 c16 21 28 26 53 24 l31 -3 3
-128 c3 -125 2 -128 -20 -137 -17 -6 -7 -9 42 -8 36 0 55 3 43 5 -23 4 -23 7
-23 139 l0 134 34 0 c24 0 39 -7 49 -20 14 -21 15 -21 21 6 4 14 6 27 4 28 -2
0 -60 0 -130 -2z"/>
<path d="M8459 5261 c29 -5 52 -17 68 -35 l23 -27 0 25 c0 32 -9 37 -78 41
-53 4 -54 4 -13 -4z"/>
<path d="M4852 5240 c-114 -70 -83 -244 48 -266 l35 -5 -32 17 c-86 44 -105
182 -33 247 36 32 28 35 -18 7z"/>
<path d="M5145 5115 l0 -145 86 0 c81 0 87 1 93 23 9 36 7 37 -19 11 -20 -20
-33 -25 -68 -22 l-42 3 -3 68 -3 67 44 0 c23 0 48 -5 55 -12 9 -9 12 -6 12 17
0 23 -3 26 -12 17 -7 -7 -32 -12 -55 -12 l-44 0 3 58 3 57 41 3 c28 2 47 -2
58 -13 15 -15 16 -15 16 4 0 20 -6 21 -82 21 l-83 0 0 -145z"/>
<path d="M5417 5242 c-10 -10 -17 -33 -17 -50 0 -24 8 -37 37 -59 82 -62 96
-81 90 -119 -5 -31 -4 -34 10 -23 24 20 34 56 23 84 -5 13 -34 41 -65 61 -59
39 -77 73 -56 106 15 23 -1 23 -22 0z"/>
<path d="M5620 5233 l0 -26 24 22 c16 15 33 21 52 19 l29 -3 3 -110 c3 -131
-1 -152 -31 -158 -12 -2 10 -4 48 -4 39 0 60 2 48 4 -23 4 -23 7 -23 139 l0
134 30 0 c17 0 39 -9 50 -20 l20 -20 0 25 0 25 -125 0 -125 0 0 -27z"/>
<path d="M6290 5253 c26 -11 30 -26 30 -128 0 -115 -5 -142 -29 -148 -9 -3 11
-5 44 -5 33 0 53 2 45 5 -24 9 -30 25 -30 81 0 48 2 52 24 52 18 0 36 -17 75
-70 49 -68 52 -70 93 -69 34 0 38 2 22 9 -23 9 -124 118 -124 134 0 5 8 19 19
30 30 33 34 60 12 87 -17 22 -28 24 -108 26 -48 2 -81 0 -73 -4z m140 -18 c6
-8 12 -30 12 -50 0 -46 -17 -65 -58 -65 l-34 0 0 49 c0 27 3 56 6 65 8 20 57
21 74 1z"/>
<path d="M6623 5253 c15 -4 17 -19 17 -138 0 -119 -2 -134 -17 -138 -10 -3 9
-5 42 -5 45 -1 54 1 38 8 -22 9 -23 14 -23 127 0 120 3 136 30 146 8 3 -12 5
-45 5 -33 0 -52 -2 -42 -5z"/>
<path d="M7228 5250 c21 -9 22 -14 22 -135 0 -121 -1 -126 -22 -135 -17 -6 -6
-9 42 -8 36 0 55 3 43 5 -22 4 -23 8 -23 134 0 125 1 130 23 139 16 6 6 9 -43
9 -49 0 -59 -3 -42 -9z"/>
<path d="M7388 5244 c21 -14 22 -23 22 -129 0 -106 -1 -115 -22 -129 -22 -15
-21 -16 26 -16 47 0 48 0 27 18 -20 16 -22 25 -19 120 l3 104 110 -123 110
-124 2 120 c3 141 7 162 31 168 9 3 -5 5 -32 6 -47 1 -48 1 -27 -16 20 -17 22
-26 19 -111 l-3 -93 -95 110 c-91 106 -97 110 -135 111 -39 0 -39 0 -17 -16z"/>
<path d="M8055 5115 l0 -145 88 0 87 0 0 27 0 26 -23 -21 c-16 -15 -36 -22
-65 -22 l-42 0 0 70 0 70 38 0 c21 0 43 -5 50 -12 9 -9 12 -6 12 17 0 23 -3
26 -12 17 -7 -7 -29 -12 -50 -12 l-38 0 0 60 0 60 40 0 c27 0 47 -7 60 -20
l20 -20 0 25 c0 25 -1 25 -82 25 l-83 0 0 -145z"/>
<path d="M8353 5240 c-115 -70 -83 -245 49 -265 25 -4 28 -3 13 4 -11 5 -33
23 -49 40 -53 56 -47 175 12 221 32 26 16 26 -25 0z"/>
<path d="M8638 5250 c21 -9 22 -14 22 -135 0 -121 -1 -126 -22 -135 -17 -7 -8
-9 37 -8 33 0 52 2 43 5 -15 4 -18 16 -18 69 0 60 1 64 23 64 14 0 29 -10 39
-27 9 -16 33 -47 53 -70 l37 -43 91 1 c65 0 85 3 70 9 -14 6 -23 18 -23 31 0
21 -1 21 -21 -5 -31 -40 -64 -34 -115 19 -24 24 -50 55 -59 69 -15 23 -15 25
9 50 25 24 33 60 18 82 -16 24 -54 34 -129 33 -57 0 -72 -3 -55 -9z m132 -10
c10 -6 15 -25 15 -55 0 -50 -13 -65 -57 -65 -27 0 -28 1 -28 58 0 32 3 62 7
65 9 10 46 8 63 -3z"/>
<path d="M9291 5253 c10 -2 20 -14 23 -26 10 -37 7 -217 -4 -238 -10 -18 -6
-19 90 -19 l100 0 0 25 0 26 -28 -21 c-21 -16 -40 -20 -73 -18 l-44 3 -3 110
c-3 126 1 152 26 158 9 3 -10 5 -43 5 -33 0 -53 -2 -44 -5z"/>
<path d="M5965 5217 c-79 -79 -40 -224 65 -243 l35 -6 -31 20 c-42 27 -64 78
-64 150 0 45 5 66 21 86 29 37 14 33 -26 -7z"/>
<path d="M6843 5120 c-45 -94 -68 -133 -85 -139 -18 -8 -10 -10 37 -10 46 0
55 2 38 9 -25 10 -29 36 -11 75 10 23 17 25 73 25 l61 0 22 -45 c26 -55 26
-52 5 -58 -10 -3 8 -5 39 -6 l57 -1 -22 23 c-12 12 -49 75 -82 139 -33 65 -63
118 -66 118 -3 0 -33 -59 -66 -130z m81 -28 c-13 -2 -37 -2 -53 0 l-29 3 25
55 25 55 28 -55 28 -55 -24 -3z"/>
<path d="M9072 5225 c-14 -31 -15 -38 -4 -31 5 3 20 -20 35 -50 l27 -54 -55 0
-55 0 20 40 c11 21 20 43 20 47 -1 4 -17 -23 -36 -61 -19 -37 -33 -70 -31 -73
3 -2 8 5 12 16 6 18 14 21 69 21 62 0 62 0 84 -39 27 -47 27 -58 5 -64 -10 -3
9 -5 42 -6 44 0 56 2 43 10 -9 5 -48 68 -85 139 -37 71 -71 130 -74 130 -3 0
-11 -11 -17 -25z"/>
<path d="M4990 5081 c20 -5 26 -14 28 -43 2 -23 -3 -41 -13 -52 -18 -18 -8
-21 33 -10 19 5 22 13 22 54 0 29 5 50 13 53 6 3 -15 5 -48 5 -40 0 -52 -2
-35 -7z"/>
<path d="M8490 5081 c20 -6 26 -14 28 -46 3 -29 -1 -43 -14 -52 -20 -15 -6
-17 34 -7 19 5 22 13 22 54 0 29 5 50 13 53 6 3 -15 5 -48 5 -40 0 -52 -2 -35
-7z"/>
<path d="M5390 5023 c0 -34 21 -53 57 -53 17 1 17 1 0 11 -10 6 -27 25 -38 42
l-19 32 0 -32z"/>
</g>
</svg>
