<?xml version="1.0" encoding="UTF-8"?>
<svg version="1.1" viewBox="0 0 1600 1600" width="1280" height="1280" xmlns="http://www.w3.org/2000/svg">
<path transform="translate(794 74.9)" d="m0 0h2.37c11 0.03 21.9 0.15 32.9 0.44 2.02 0.06 4.05 0.11 6.07 0.15 7.4 0.23 14.6 0.93 21.9 2.07 3.66 0.53 7.28 0.81 11 1.05 27.2 1.73 54.6 6.56 81.3 12.4 1.42 0.31 1.42 0.31 2.87 0.63 12.5 2.7 24.8 5.81 37.1 9.37 2.04 0.59 4.09 1.18 6.13 1.77 2.15 0.62 4.29 1.24 6.43 1.86 1 0.29 2 0.58 3.03 0.88 5.09 1.48 10.1 3.03 15.2 4.74 2.43 0.82 4.86 1.61 7.3 2.4 8.52 2.79 17 5.59 25.2 9.18 3.08 1.31 6.19 2.5 9.32 3.67 5 1.91 9.86 4.01 14.7 6.27 2.78 1.26 5.59 2.41 8.41 3.55 6.93 2.86 13.6 6.23 20.2 9.63 3.43 1.74 6.88 3.46 10.3 5.18 1.33 0.67 2.66 1.33 3.99 2 2.35 1.18 4.71 2.34 7.08 3.5 5.56 2.73 10.9 5.64 16.2 8.88 2.56 1.54 5.17 2.96 7.8 4.37 5.73 3.1 11.2 6.5 16.8 9.95 2.12 1.31 4.25 2.6 6.38 3.89 8.04 4.85 15.9 9.77 23.5 15.3 1.66 1.17 3.33 2.34 5 3.5 0.82 0.58 1.65 1.16 2.5 1.76 1.66 1.16 3.33 2.31 5 3.46 5.07 3.5 9.94 7.16 14.7 11 3.28 2.65 6.59 5.26 9.9 7.87 0.9 0.71 0.9 0.71 1.81 1.43 3.27 2.57 6.58 5.07 9.94 7.51 1.03 0.8 2.07 1.61 3.13 2.43v2c0.58 0.28 1.16 0.55 1.75 0.83 5.86 3.06 10.7 7.47 15.2 12.2 1.86 1.58 3.74 3.14 5.64 4.67 0.45 0.44 0.9 0.88 1.36 1.33v2c0.83 0.38 0.83 0.38 1.68 0.76 4.1 2.21 7.18 4.99 10.1 8.56 2.09 2.52 4.25 4.68 6.76 6.79 5.06 4.38 9.77 9.09 14.5 13.8 0.86 0.86 1.72 1.71 2.6 2.59 14.3 14.4 14.3 14.4 14.3 17.5 0.89 0.38 0.89 0.38 1.81 0.76 2.5 1.43 3.67 2.81 5.19 5.24v2h2c1.35 1.49 2.63 3.05 3.87 4.63 3.6 4.5 7.28 8.9 11.1 13.2 5.62 6.51 10.9 13.2 16.1 20.1 0.82 1.1 1.65 2.18 2.48 3.27 5.94 7.86 5.94 7.86 8.55 11.8 2.26 3.38 4.74 6.52 7.28 9.69 1.75 2.33 3.2 4.74 4.69 7.24 1.58 2.44 3.19 4.85 4.81 7.26 0.45 0.66 0.89 1.33 1.35 2.01 1.86 2.79 3.73 5.58 5.61 8.36 2.99 4.43 5.81 8.93 8.53 13.5 1.26 2.12 2.54 4.23 3.83 6.33 13.9 22.6 13.9 22.6 13.9 27.5 0.99 0.33 1.98 0.67 3 1 0.99 1.72 0.99 1.72 1.87 3.94 1.38 3.31 2.82 6.55 4.44 9.75 0.42 0.84 0.84 1.68 1.28 2.54 1.01 1.99 2.02 3.97 3.04 5.96 3.56 7.02 6.88 14.1 9.97 21.3 1.26 2.93 2.55 5.81 3.98 8.66 1.29 2.58 2.37 5.16 3.42 7.84 0.32 0.75 0.64 1.5 0.97 2.27 4.37 10.2 8.16 20.6 12 31 0.89 2.38 1.79 4.75 2.69 7.12 1.04 2.83 1.99 5.62 2.82 8.51 1.78 6.08 3.72 12.1 6 18 1.75 4.62 3.13 9.32 4.5 14.1 0.31 1.07 0.62 2.13 0.94 3.23 6.6 22.9 6.6 22.9 8.51 33.1 0.66 3.19 1.52 6.31 2.36 9.46 3 11.5 4.68 23.3 6.63 35 0.47 2.69 1 5.34 1.58 8.01 1.52 7.44 2.2 15 3.04 22.6 0.26 2.32 0.52 4.63 0.78 6.95 0.17 1.43 0.33 2.86 0.49 4.29 0.41 3.71 0.41 3.71 1.18 7.35 0.85 3.55 0.83 7.21 0.99 10.8 0.04 0.85 0.08 1.71 0.12 2.59 0.17 3.64 0.34 7.28 0.5 10.9 0.12 2.66 0.25 5.32 0.38 7.98 0.03 0.83 0.07 1.65 0.1 2.5 0.16 3.27 0.36 6.06 1.4 9.18 1.5 12.2 0.99 24.6 0.7 36.8-0.08 3.37-0.14 6.75-0.21 10.1-0.05 2.15-0.09 4.3-0.14 6.45-0.02 1.01-0.04 2.01-0.06 3.05-0.02 0.93-0.05 1.86-0.07 2.82-0.02 0.82-0.04 1.63-0.06 2.47-0.16 2.2-0.59 4.13-1.16 6.24-0.11 1.62-0.18 3.23-0.21 4.84-0.04 1.46-0.04 1.46-0.08 2.93-0.03 1.05-0.06 2.1-0.09 3.17-0.33 9.9-1.04 19.7-2.06 29.6-0.12 1.21-0.24 2.42-0.37 3.67-0.61 5.66-1.41 11.1-2.74 16.7-1.04 4.98-1.26 10.1-1.66 15.2-0.12 1.28-0.12 1.28-0.23 2.58-0.06 0.76-0.12 1.52-0.18 2.3-0.42 2.35-1.28 4.04-2.38 6.14-0.31 2.6-0.31 2.6-0.38 5.5-0.84 13.4-4.2 26.6-7.62 39.5-0.83 3.22-1.57 6.45-2.31 9.69-1.97 8.52-4.19 16.9-6.69 25.3-0.24 0.79-0.47 1.58-0.71 2.4-1.51 5.05-3.03 10.1-4.55 15.2-0.52 1.7-1.02 3.41-1.52 5.11-1.25 4.22-2.51 8.35-4.22 12.4-1.6 3.77-2.9 7.6-4.18 11.5-1.38 4.1-2.88 8.14-4.38 12.2-0.31 0.82-0.61 1.64-0.92 2.49-1.46 3.94-2.95 7.86-4.52 11.8-0.38 1-0.38 1-0.76 2.01-2.57 6.75-5.69 13.2-8.81 19.7-2.89 6.06-5.59 12.2-8.14 18.4-1.25 2.79-2.72 5.27-4.29 7.88-0.69 1.66-1.36 3.33-2 5-3.37 7.16-7.18 14.1-11 21-0.43 0.78-0.85 1.55-1.28 2.35-2.14 3.89-4.36 7.73-6.66 11.5-2.13 3.51-4.13 7.07-6.06 10.7-2.29 4.25-4.82 8.24-7.55 12.2-2.37 3.61-4.42 7.4-6.45 11.2h-2c-0.27 0.97-0.54 1.94-0.82 2.94-0.39 1.01-0.78 2.02-1.18 3.06-0.99 0.33-1.98 0.67-3 1-0.61 1.86-0.61 1.86-1 4-0.64 1.35-1.3 2.69-2 4h-2c-0.27 0.97-0.54 1.94-0.82 2.94-0.39 1.01-0.78 2.02-1.18 3.06-0.99 0.33-1.98 0.67-3 1-0.13 0.56-0.25 1.12-0.38 1.69-0.94 3.48-3.31 5.61-5.62 8.31-0.68 1.33-1.36 2.66-2 4-0.66 0.33-1.32 0.67-2 1-1 1.69-1.98 3.38-2.93 5.1-2.56 4.56-5.39 8.23-9.07 11.9-1.34 1.57-2.65 3.16-3.94 4.76-0.77 0.95-1.55 1.9-2.34 2.87-2.06 2.54-4.09 5.1-6.13 7.65-0.58 0.73-1.17 1.46-1.77 2.21-1.16 1.46-2.33 2.92-3.48 4.38-0.53 0.67-1.07 1.34-1.62 2.02-0.48 0.6-0.95 1.2-1.44 1.82-0.43 0.43-0.85 0.85-1.28 1.29h-2c-0.23 0.73-0.46 1.45-0.69 2.19-1.58 3.39-3.51 5.36-6.31 7.81-0.99 0.33-1.98 0.67-3 1-0.37 1.33-0.7 2.66-1 4-1.19 1.56-1.19 1.56-2.65 3.02-0.53 0.53-1.06 1.06-1.61 1.6s-1.11 1.08-1.68 1.64l-1.67 1.67c-4.13 4.07-4.13 4.07-6.39 4.07-0.27 0.6-0.54 1.19-0.81 1.81-1.2 2.22-2.4 3.62-4.2 5.37-0.59 0.58-1.18 1.15-1.79 1.75-0.62 0.6-1.25 1.2-1.89 1.83-4.55 4.45-8.93 8.88-12.9 13.9-1.43 1.35-1.43 1.35-3.49 1.8-0.64 0.19-1.28 0.37-1.94 0.55-0.71 1.32-1.38 2.65-2 4-1.91 1.86-1.91 1.86-4.06 3.63-2.92 2.33-2.92 2.33-4.94 5.37-0.87 0.41-0.87 0.41-1.75 0.82-2.98 1.57-4.88 3.8-7.25 6.18-1.86 1.61-3.73 3.2-5.63 4.76-0.94 0.77-1.88 1.55-2.85 2.35-2.52 1.89-2.52 1.89-5.52 2.89v2c-3.46 3-3.46 3-6 3v2c-1.65 1.03-3.32 2.03-5 3-1.7 1.57-3.21 3.23-4.75 4.94-1.95 1.78-3.54 2.87-5.81 4.13-2.78 1.56-4.33 2.71-6.44 4.93-0.99 0.33-1.98 0.67-3 1-0.66 1-1.32 1.99-2 3-1.64 0.94-3.28 1.87-4.94 2.77-3.21 1.93-6.06 4.3-8.99 6.63-2.26 1.75-4.58 3.22-7.07 4.6-0.89 0.56-1.78 1.12-2.69 1.69-2.31 1.31-2.31 1.31-4.31 1.31-0.33 1-0.66 1.99-1 3-1.91 0.97-3.82 1.94-5.76 2.84-2.3 1.2-4.2 2.56-6.24 4.16-3.23 2.52-6.45 4.34-10.2 6.08-2.07 0.98-2.07 0.98-4.67 2.8-3.73 2.49-7.63 4.56-11.6 6.66-2.56 1.37-2.56 1.37-4.61 3.02-2.23 1.63-4.4 2.46-6.97 3.44-1.74 0.92-3.47 1.86-5.19 2.82-4.36 2.41-8.76 4.7-13.2 6.91-1.79 0.88-3.57 1.77-5.35 2.67-8 4.05-16.1 7.85-24.2 11.6-0.95 0.45-1.9 0.89-2.87 1.35-11.2 5.2-22.7 9.61-34.4 13.6-2.82 0.9-2.82 0.9-4.73 3.07-2.46 0.87-4.89 1.65-7.38 2.38-1.45 0.44-2.91 0.88-4.37 1.33-0.72 0.22-1.44 0.44-2.19 0.66-4.72 1.45-9.38 3.06-14.1 4.63-2.22 0.75-4.45 1.49-6.67 2.22-1.71 0.58-3.42 1.16-5.13 1.75-7 2.4-14 4.31-21.2 6.03-3.44 0.85-6.88 1.71-10.3 2.57-0.84 0.21-1.69 0.42-2.57 0.63-3.62 0.91-7.22 1.84-10.8 2.88-3.23 0.91-6.43 1.6-9.73 2.24-4.73 0.91-9.46 1.87-14.2 2.88-12.8 2.74-25.5 5.08-38.4 6.8-0.69 0.1-1.38 0.19-2.09 0.29-4.63 0.62-9.27 1.18-13.9 1.71-0.69 0.09-1.37 0.17-2.07 0.25-29.4 3.45-61.4 6.53-90.9 4.75-0.33-0.32-0.66-0.66-1-1-2.67-0.13-5.31-0.21-7.97-0.24-1.69-0.03-3.38-0.06-5.08-0.1-0.89-0.01-1.78-0.03-2.7-0.04-12.8-0.23-25.7-0.51-38.5-1.55-1.41-0.11-1.41-0.11-2.84-0.23-4.55-0.4-9.02-1-13.5-1.78-4.85-0.84-9.71-1.49-14.6-2.06-0.71-0.08-1.42-0.16-2.15-0.24-2.94-0.34-5.88-0.68-8.82-1-2.17-0.25-4.35-0.5-6.53-0.76-1.28-0.14-2.56-0.28-3.88-0.43-3.12-0.52-5.5-1.37-8.4-2.57-1.99-0.36-4-0.67-6-0.94-6.77-0.97-13.4-2.41-20-3.99-1.61-0.38-1.61-0.38-3.25-0.77-2.16-0.5-4.32-1.01-6.49-1.53-3.34-0.78-6.69-1.55-10-2.31-4.98-1.15-9.92-2.38-14.8-3.77-0.75-0.21-1.5-0.42-2.27-0.63-7.99-2.26-15.9-4.78-23.8-7.32-2.25-0.72-4.51-1.42-6.77-2.12-0.71-0.22-1.42-0.44-2.15-0.67-1.92-0.59-3.84-1.18-5.76-1.77-3.92-1.28-7.76-2.7-11.6-4.18-0.8-0.3-1.6-0.6-2.43-0.92-1.73-0.66-3.46-1.32-5.19-1.98-8.1-3.1-16.2-6.18-24.4-9.1v-2c-0.56-0.09-1.12-0.19-1.69-0.29-4.67-0.92-8.58-2.16-12.8-4.43-4.17-2.12-8.49-3.9-12.8-5.72-3.76-1.62-7.25-3.37-10.7-5.56-1.99-1.01-3.99-2.01-6-3-5.12-2.51-10.1-5.06-15-8-1.66-0.69-3.32-1.37-5-2v-2c-0.72-0.1-1.45-0.2-2.19-0.31-3.15-0.77-5.08-1.94-7.81-3.69-1.37-0.75-2.75-1.5-4.13-2.24-4.59-2.54-8.97-5.35-13.4-8.2-2.55-1.64-2.55-1.64-5.62-3.12-3.27-1.63-6.17-3.58-9.19-5.64-2.56-1.71-5.15-3.37-7.75-5.02-6.01-3.82-11.8-7.78-17.5-12-2.36-1.75-2.36-1.75-4.85-3.18-2.93-1.77-5.59-3.78-8.3-5.86-4.45-3.38-8.96-6.54-13.7-9.49-0.51-0.4-1.02-0.79-1.54-1.2v-2c-0.62-0.3-1.24-0.61-1.88-0.93-1.37-0.69-2.75-1.38-4.12-2.07v-2c-0.73-0.24-1.46-0.49-2.21-0.74-3.06-1.38-4.98-2.97-7.42-5.26-2.42-2.24-4.62-4.16-7.37-6v-2c-0.71-0.22-1.41-0.44-2.14-0.67-3.48-1.61-5.95-3.88-8.68-6.51-0.98-0.93-1.97-1.87-2.95-2.8-0.77-0.73-0.77-0.73-1.56-1.47-1.81-1.67-3.66-3.29-5.52-4.9-4.38-3.82-8.62-7.78-12.8-11.8-0.73-0.69-1.47-1.38-2.22-2.09-10.8-10.2-10.8-10.2-12.2-13-0.79-1.95-0.79-1.95-2.69-2.69-3.34-1.67-5.9-4.24-8.25-7.13v-2c-0.56-0.21-1.12-0.42-1.69-0.63-3.11-1.83-5.05-4.39-7.25-7.18-3.16-3.95-6.45-7.63-10.1-11.2-1.34-1.66-2.67-3.33-4-5-0.81-0.8-1.61-1.6-2.44-2.43-2.74-2.75-5.18-5.5-7.56-8.57v-2h-2c-1.77-2.04-3.43-4.09-5.06-6.24-0.5-0.64-0.99-1.28-1.49-1.93-3.79-4.92-7.52-9.88-11.2-14.9-2.29-3.04-4.63-6.03-6.98-9.03-10.6-13.7-19.9-28.4-29.2-42.9-0.67-1.04-1.34-2.08-2.03-3.15-6.95-10.8-13.3-22-19.5-33.2-0.99-1.79-1.98-3.59-2.98-5.39l-4.77-8.64c-0.49-0.89-0.98-1.78-1.48-2.69-2.93-5.34-5.59-10.8-8.05-16.3-1.19-2.63-2.47-5.21-3.78-7.79-1.95-3.86-3.69-7.77-5.37-11.8-0.77-1.66-1.54-3.33-2.32-5-2.39-5.22-4.54-10.5-6.63-15.9-0.99-2.52-1.98-4.99-3.22-7.39-1.11-2.3-0.97-4.22-0.83-6.74h-2c-1.11-3.12-2.21-6.24-3.32-9.37-0.3-0.87-0.61-1.74-0.93-2.64-1.84-5.24-3.54-10.5-5.08-15.8-0.71-2.41-0.71-2.41-2.17-5.66-1.51-3.51-2.61-7-3.66-10.7-0.7-2.37-1.46-4.69-2.25-7.02-1.64-4.88-3.11-9.8-4.53-14.7-0.26-0.91-0.52-1.81-0.79-2.74-1.92-6.8-3.56-13.6-4.98-20.6-0.59-2.83-1.18-5.5-2.28-8.18-1.03-2.65-1.56-5.06-2.01-7.87-0.25-1.48-0.25-1.48-0.5-3-0.17-1.02-0.33-2.05-0.5-3.1-1.03-6.34-2.14-12.5-4-18.6-2.34-10.3-3.72-20.7-5.13-31.2-0.17-1.26-0.34-2.52-0.51-3.82-0.95-7.18-1.67-14.3-2.11-21.6 0.01-2.37 0.01-2.37-1.25-3.43-1.02-5.95-1.23-12-1.5-18.1-0.09-1.69-0.17-3.38-0.25-5.07-0.13-2.62-0.25-5.25-0.38-7.88-0.12-2.56-0.25-5.12-0.37-7.68-0.04-0.78-0.07-1.57-0.11-2.38-0.16-3.18-0.38-5.87-1.39-8.91-0.1-1.52-0.14-3.05-0.15-4.58-0.01-1.39-0.01-1.39-0.02-2.81v-3.06c-0.01-1.58-0.01-1.58-0.01-3.19-0.01-2.25-0.01-4.49-0.01-6.74 0-3.35-0.02-6.7-0.04-10-0.03-13.2 0.66-26.2 2.02-39.3 0.43-4.57 0.54-9.15 0.65-13.7 0.35-10.2 1.59-20.2 3.1-30.3 0.52-3.63 0.98-7.26 1.44-10.9 0.08-0.67 0.17-1.34 0.25-2.04 0.42-3.31 0.83-6.62 1.23-9.93 1.84-14.6 4.8-29 7.98-43.3 0.15-0.7 0.3-1.4 0.46-2.12 2.2-10 4.47-20 7.1-29.9 0.26-1 0.52-2 0.79-3.04 0.92-3.48 1.84-6.97 2.77-10.5 0.29-1.11 0.59-2.22 0.89-3.36 1.57-5.86 3.35-11.5 5.55-17.1 0.71-2.2 1.39-4.4 2.06-6.62 5.13-17 11.4-33.7 18-50.1 0.82-2.07 1.58-4.14 2.33-6.24 0.87-2.36 1.7-4.23 3.06-6.37 1.87-3.28 2.71-6.58 3.65-10.2 0.92-2.6 2.15-4.26 3.85-6.41 0.72-1.64 1.44-3.29 2.12-4.95 1.01-2.34 2.15-4.59 3.32-6.86 2.13-4.2 3.92-8.45 5.57-12.9 1.11-2.61 2.5-4.91 3.99-7.33 1.13-2.07 2.26-4.16 3.37-6.24 2.42-4.52 4.87-9.01 7.36-13.5 2.45-4.41 4.86-8.84 7.27-13.3h2c0.12-0.74 0.24-1.48 0.37-2.24 0.58-2.56 1.36-4.48 2.63-6.76h2c0.24-0.86 0.49-1.73 0.75-2.62 1.32-3.56 3.1-6.26 5.25-9.38l1-3 3-3 1.06-2.12c0.94-1.88 0.94-1.88 2.94-2.88 0.47-1.11 0.95-2.22 1.44-3.37 1.38-3.2 2.12-4.4 4.56-6.63 1.17-2.09 1.17-2.09 2-4h2c0.24-0.72 0.49-1.44 0.75-2.18 1.36-3.07 3.12-5.23 5.25-7.82l1.12-2.24c0.88-1.76 0.88-1.76 2.88-2.76 0.99-1.68 1.98-3.37 2.92-5.08 1.87-3.33 3.81-6.65 6.53-9.36 1.63-1.64 2.94-3.36 4.3-5.24 2.18-2.97 4.48-5.76 6.93-8.5 1.91-2.13 3.39-3.95 4.82-6.44 1.86-2.95 4.18-4.71 6.86-6.89 2.1-1.9 3.3-4.01 4.64-6.49 0.98-1.01 1.99-2.01 3-3 1.13-1.28 2.26-2.57 3.37-3.87 2.09-2.41 4.2-4.73 6.5-6.94 2.33-2.08 2.33-2.08 3.13-5.19h3c0.16-0.68 0.33-1.36 0.5-2.06 1.88-3.68 4.33-5.62 7.47-8.24 2.5-2.09 4.76-4.36 7.03-6.7l15-15c1.17-1.2 1.17-1.2 2.37-2.43 1.98-1.93 3.94-3.68 6.07-5.44 3.09-2.6 5.61-5.43 8.1-8.61 1.67-1.73 3.29-2.51 5.46-3.52 1.02-0.97 2.02-1.97 3-3 3.66-3 3.66-3 6-3 0.19-0.55 0.39-1.1 0.6-1.67 1.97-3.28 4.82-5.25 7.84-7.51 1.26-0.98 2.53-1.95 3.8-2.92 0.63-0.49 1.26-0.97 1.92-1.47 3.54-2.74 6.98-5.6 10.4-8.45 0.79-0.65 1.58-1.3 2.4-1.98 0.86-0.74 1.73-1.48 2.62-2.25 2.38-1.75 2.38-1.75 5.38-1.75 0.34-0.89 0.34-0.89 0.68-1.81 1.69-2.81 3.45-3.62 6.32-5.19 1.05-0.72 2.1-1.44 3.18-2.18 2.82-1.82 2.82-1.82 4.82-1.82v-2c1.17-0.4 1.17-0.4 2.37-0.81 2.91-1.03 2.91-1.03 4.63-4.19 1.32-0.68 2.66-1.35 4-2 0.33-0.65 0.66-1.31 1-2 1.88-0.94 3.77-1.87 5.67-2.78 3.99-2.08 7.63-4.66 11.3-7.22 3-2 3-2 6-2l1-3c2.15-1.39 2.15-1.39 4.94-2.81 3.76-1.96 7.44-3.97 11.1-6.19 4.25-2.57 8.56-5 12.9-7.35 2.27-1.22 4.52-2.45 6.77-3.7 6.61-3.62 13-6.9 20.3-8.95v-2c0.7-0.27 1.41-0.55 2.13-0.84 7.06-2.87 13.8-6.08 20.6-9.52 3.36-1.68 6.74-3.25 10.2-4.74 1.45-0.62 2.88-1.26 4.31-1.92 4.38-2 8.74-3.66 13.3-5.13 3.8-1.31 7.47-2.89 11.2-4.47 7.84-3.29 15.7-6.24 23.8-8.75 7.95-2.47 7.95-2.47 15.8-5.13 13.4-4.7 27.1-8.06 40.8-11.5 3.92-1 7.83-2.05 11.7-3.1 5.24-1.4 10.4-2.72 15.8-3.75 0.79-0.16 1.58-0.31 2.39-0.47 9.16-1.76 18.4-3.3 27.6-4.84 0.79-0.14 1.57-0.27 2.38-0.4 15.5-2.62 15.5-2.62 23-3.2 1.96-0.17 1.96-0.17 3.79-0.69 3.05-0.73 6.09-0.96 9.22-1.24 0.68-0.07 1.36-0.13 2.06-0.19 2.17-0.2 4.35-0.4 6.52-0.6 2.15-0.19 4.29-0.39 6.44-0.58 1.4-0.13 2.81-0.26 4.21-0.39 3.54-0.32 7.09-0.67 10.6-1.06 13.5-1.35 27.1-1.64 40.7-1.59zm704 586 1 3zm10 66 1 2zm3 43v5h1v-5h-1zm0 7v14h1v-14h-1zm-1425 1 1 2zm1425 40 1 3zm-1425 5v5h1v-5h-1zm1425 0 1 2zm0 3 1 3z" fill="#FAFEFE"/>
<path transform="translate(691 276)" d="m0 0h3.61c0.99-0 0.99-0 2.01-0.01 2.23 0 4.46 0.01 6.69 0.02 1.59-0.01 3.19-0.01 4.78-0.01 4.34-0 8.68 0 13 0.01 4.53 0.01 9.06 0.01 13.6 0.01 7.62 0 15.2 0.01 22.8 0.02 8.81 0.02 17.6 0.02 26.4 0.02 8.46 0 16.9 0.01 25.4 0.02h10.8c4.24 0 8.49 0.01 12.7 0.02h4.69c2.12 0 4.25 0.01 6.37 0.02h3.61c2.65 0.13 2.65 0.13 3.65 1.13 0.09 1.9 0.12 3.8 0.12 5.7v3.75c0 1.39-0.01 2.77-0.01 4.16v4.34c0 3.95 0 7.89-0.01 11.8-0.01 4.12-0.01 8.24-0.01 12.4 0 7.8-0.01 15.6-0.02 23.4-0.01 8.88-0.02 17.8-0.02 26.6-0.01 18.3-0.03 36.6-0.05 54.8h1.88c122-0.1 122-0.1 179 13 1.65 0.38 1.65 0.38 3.35 0.76 2.04 0.47 4.08 0.94 6.12 1.42 2.69 0.62 5.39 1.23 8.09 1.83 1.56 0.35 3.12 0.7 4.69 1.05 0.75 0.16 1.5 0.33 2.28 0.49 1.83 0.42 3.65 0.93 5.47 1.45l1 2c1.01 0.14 2.02 0.29 3.06 0.44 3.49 0.49 6.36 1.33 9.61 2.63 1.67 0.67 3.36 1.29 5.06 1.89 19.4 6.95 36.6 17.8 52.3 31 0.66 0.53 1.31 1.07 1.99 1.62 4.52 3.71 8.27 7.9 12 12.4 0.8 0.95 1.61 1.9 2.43 2.87 1.57 2.13 1.57 2.13 1.57 4.13h2c1.14 1.35 1.14 1.35 2.39 3.26 0.46 0.7 0.92 1.4 1.39 2.12 0.48 0.76 0.97 1.52 1.47 2.31 0.49 0.77 0.99 1.54 1.5 2.34 4.05 6.44 7.38 12.9 10.2 20 0.36 0.86 0.73 1.72 1.1 2.61 15.8 40 14.2 94.7 6.9 136-0.14 0.81-0.28 1.63-0.43 2.47-2.6 14.4-7.89 28.5-15.2 41.2-1.29 2.24-2.42 4.51-3.53 6.84-1.55 2.99-2.52 4.27-4.81 6.5l-2 3h-2c-0.23 0.72-0.46 1.44-0.69 2.19-1.58 3.39-3.62 5.22-6.31 7.81-0.76 0.74-1.52 1.49-2.3 2.25-11.8 11.1-25.6 20.8-40 28.1-1 0.51-2.01 1.02-3.05 1.55-2.63 1.14-2.63 1.14-5.63 1.14v2c-0.7 0.25-1.41 0.51-2.13 0.77-1.42 0.51-1.42 0.51-2.87 1.04-0.93 0.34-1.86 0.67-2.82 1.02-2.33 0.86-4.66 1.72-6.99 2.6-28.6 10.7-58 16.4-88.2 20.6-0.88 0.12-1.76 0.24-2.67 0.37-11.6 1.55-23.2 2.09-34.8 2.75-0.79 0.05-1.57 0.09-2.38 0.14-7.95 0.45-15.9 0.87-23.8 0.67-2.29 0-2.29 0-4.53 0.55-5.71 1.07-11.6 0.92-17.4 1.07-0.76 0.02-1.51 0.05-2.29 0.07-21.8 0.59-43.6 0.53-65.3 0.51h-18c-10.1 0.01-20.2 0-30.2 0-11.6-0.01-23.1 0-34.7 0-10 0.01-20.1 0.01-30.1 0-5.95 0-11.9 0-17.8 0.01-42.3 0.02-42.3 0.02-59.8-0.52-1.7-0.05-1.7-0.05-3.42-0.1-1-0.03-2-0.07-3.03-0.11-0.84-0.03-1.69-0.06-2.56-0.09-2-0.32-2-0.32-4-2.32-0.27-2.26-0.27-2.26-0.28-5.14-0.02-1.63-0.02-1.63-0.04-3.3v-3.63c-0.01-1.26-0.02-2.52-0.03-3.81-0.03-3.46-0.05-6.92-0.06-10.4-0.01-3.61-0.04-7.22-0.07-10.8-0.04-6.84-0.08-13.7-0.11-20.5-0.04-7.78-0.09-15.6-0.14-23.4-0.1-16-0.19-32-0.27-48h-1.92c-6.7 0.02-13.4 0.04-20.1 0.05-2.49 0-4.98 0.01-7.46 0.01-19.6 0.06-39-0.42-58.5-2.06-0.94-0.08-1.89-0.15-2.85-0.23-9.73-0.79-19.3-2.2-29-3.77-1.02-0.17-2.04-0.33-3.09-0.5-4.88-0.83-9.42-1.85-14.1-3.5-2.27-0.51-4.54-0.99-6.82-1.44-5.58-1.18-10.8-2.57-16.2-4.56-1.28-0.46-2.55-0.92-3.83-1.38-6.94-2.54-13.6-5.17-20.2-8.62-1.61-0.68-1.61-0.68-3.25-1.38-10.4-4.44-19.8-10-29.1-16.5-1.64-1.13-3.31-2.22-4.98-3.31-2.95-2.01-5.22-4.3-7.71-6.85-0.79-0.6-1.57-1.2-2.38-1.81-21.3-17.8-34.7-46.2-42.6-72.2-0.53-1.65-0.53-1.65-1.06-3.33-5.93-20.2-8.2-42-8.01-63 0.01-1.42 0.01-1.42 0.02-2.86 0.01-2.28 0.03-4.55 0.05-6.83 4.21-0.8 8.2-1.13 12.5-1.13 1.93-0.01 1.93-0.01 3.9-0.02h4.24c1.5 0 2.99 0 4.49-0.01 4.06-0.01 8.12-0.01 12.2-0.01h7.62c8.85-0.01 17.7-0.02 26.6-0.02 8.25 0 16.5-0.01 24.8-0.02 7.09-0.02 14.2-0.02 21.3-0.02 4.24 0 8.47 0 12.7-0.01 3.98-0.01 7.96-0.01 11.9-0.01 1.46 0.01 2.92 0 4.37 0 2-0.01 3.99 0 5.99 0h3.38c3.31 0.26 6.01 1.07 9.11 2.25 0.05 0.74 0.11 1.48 0.16 2.24 0.26 3.4 0.52 6.8 0.77 10.2 0.09 1.16 0.18 2.33 0.27 3.53 0.93 13.4 0.93 13.4 3.86 26.4 1.94 6.33 1.94 6.33 1.94 9.63h2c0.19 0.59 0.39 1.19 0.59 1.8 6.24 17.3 19.4 28.2 35.4 36.2 2.96 1.27 5.88 2.19 9 3 0.88 0.26 1.77 0.53 2.68 0.8 19.9 5.57 42.3 3.84 62.3 0.2v-143c39-1 39-1 54-1-0.01-1.83-0.01-3.65-0.02-5.53-0.04-17.2-0.07-34.3-0.09-51.5-0.01-8.82-0.02-17.6-0.04-26.5-0.02-7.69-0.04-15.4-0.04-23.1 0-4.08-0.01-8.15-0.02-12.2-0.02-3.83-0.02-7.66-0.02-11.5 0-1.41 0-2.82-0.01-4.23-0.01-1.91-0.01-3.83 0-5.75-0.01-1.61-0.01-1.61-0.01-3.25 0.36-3.71 1.36-4.45 5.02-4.78z" fill="#707275"/>
<path transform="translate(851,424)" d="m0 0c122-0.37 122-0.37 181 13 1.11 0.25 2.21 0.5 3.35 0.76 2.04 0.47 4.08 0.94 6.12 1.42 2.7 0.63 5.39 1.23 8.09 1.83 1.56 0.35 3.13 0.7 4.69 1.05 0.75 0.16 1.5 0.33 2.28 0.49 1.84 0.42 3.66 0.93 5.47 1.45l1 2c1.01 0.14 2.02 0.29 3.06 0.44 3.49 0.5 6.36 1.33 9.62 2.63 1.67 0.67 3.35 1.29 5.05 1.89 19.4 6.95 36.6 17.8 52.3 31 0.66 0.53 1.32 1.07 2 1.62 4.51 3.71 8.27 7.9 12 12.4 0.8 0.95 1.61 1.9 2.44 2.88 1.56 2.12 1.56 2.12 1.56 4.12h2c1.14 1.35 1.14 1.35 2.39 3.26 0.46 0.7 0.92 1.4 1.39 2.12 0.49 0.76 0.97 1.52 1.47 2.31 0.74 1.16 0.74 1.16 1.5 2.34 4.05 6.44 7.39 12.9 10.2 20 0.36 0.86 0.73 1.72 1.11 2.61 15.8 40 14.1 94.7 6.89 136-0.14 0.81-0.28 1.63-0.42 2.47-2.61 14.4-7.9 28.5-15.2 41.2-1.28 2.24-2.42 4.51-3.53 6.84-1.55 2.99-2.51 4.27-4.81 6.5l-2 3h-2c-0.23 0.72-0.45 1.44-0.69 2.19-1.58 3.39-3.62 5.22-6.31 7.81-0.76 0.74-1.52 1.49-2.3 2.25-11.8 11.1-25.6 20.8-40 28.1-1.01 0.51-2.02 1.03-3.05 1.55-2.64 1.14-2.64 1.14-5.64 1.14v2c-0.7 0.25-1.4 0.51-2.12 0.77-0.95 0.34-1.9 0.69-2.88 1.04-0.93 0.34-1.86 0.68-2.81 1.02-2.34 0.86-4.67 1.73-7 2.6-28.6 10.7-58 16.4-88.2 20.6-0.88 0.12-1.76 0.24-2.66 0.37-11.6 1.55-23.2 2.09-34.8 2.75-0.78 0.05-1.57 0.09-2.37 0.14-7.96 0.45-15.9 0.87-23.8 0.67-2.29 0-2.29 0-4.52 0.55-5.72 1.07-11.6 0.92-17.4 1.07-0.75 0.03-1.51 0.05-2.28 0.07-21.8 0.59-43.6 0.53-65.3 0.51-6.02 0-12 0-18 0.01-10.1 0-20.2 0-30.2-0.01-11.6-0.01-23.1 0-34.7 0-10 0.01-20.1 0.01-30.1 0-5.95 0-11.9 0-17.8 0.01-42.3 0.02-42.3 0.02-59.8-0.52-1.69-0.05-1.69-0.05-3.42-0.1-1-0.03-1.99-0.07-3.02-0.11-0.85-0.03-1.69-0.06-2.56-0.09-2.01-0.32-2.01-0.32-4.01-2.32-0.26-2.28-0.26-2.28-0.28-5.18-0.01-1.09-0.02-2.19-0.03-3.32 0-1.21-0.01-2.42-0.01-3.66-0.01-1.27-0.02-2.54-0.03-3.84-0.03-3.49-0.04-6.97-0.05-10.4-0.02-3.64-0.05-7.28-0.07-10.9-0.05-6.89-0.09-13.8-0.12-20.7-0.04-7.85-0.09-15.7-0.14-23.5-0.1-16.1-0.19-32.3-0.27-48.4 1.27-0.16 2.54-0.33 3.85-0.5 0.71-0.09 1.43-0.18 2.16-0.28 2.12-0.23 4.17-0.29 6.3-0.22 3.63 0.19 3.63 0.19 6.69-1 2.77-0.39 5.53-0.74 8.31-1.06 1.12-0.14 1.12-0.14 2.27-0.28 3.31-0.39 6.49-0.66 9.84-0.66 2.57 0.19 2.57 0.19 4.58-1 2.3-0.31 4.6-0.51 6.91-0.72 2.14-0.17 2.14-0.17 4.09-1.28 2.16-0.23 4.33-0.43 6.5-0.62 16.9-1.87 33.9-7.15 49.6-13.6 2-0.81 4.01-1.57 6.03-2.34 14.4-5.57 27.5-13.1 39.5-22.8 2.32-1.62 2.32-1.62 5.32-1.62l1 84c16.8 0.03 16.8 0.03 33.6 0.05 6.86 0 13.7 0.01 20.6 0.03 5.54 0.01 11.1 0.01 16.6 0.01 2.09 0.01 4.19 0.01 6.29 0.02 10.1 0.02 20.2-0.03 30.4-0.55 0.74-0.04 1.49-0.08 2.26-0.12 7.07-0.41 14-1.33 21-2.43 2.05-0.32 4.11-0.63 6.17-0.93 12.4-1.88 24.8-4.38 36.1-10.1 0.98-0.48 1.96-0.95 2.96-1.45 10.2-4.73 10.2-4.73 19-11.6 1.23-1.02 2.46-2.05 3.69-3.06 15.6-13.7 20.8-32.8 22.3-52.9 1.37-26.2-0.94-54.7-18.6-75.6-22.4-23-56.1-29.3-86.8-32.1-0.71-0.07-1.43-0.14-2.17-0.21-13.8-1.25-27.6-1.4-41.4-1.15-1.13 0.02-1.13 0.02-2.29 0.04-2.04 0.03-4.09 0.07-6.13 0.12-3.55-0.18-6.25-0.89-9.54-2.18 0.13-1.06 0.27-2.13 0.4-3.22 3.44-30 2.79-60.6 2.6-90.8z" fill="#0049AD"/>
<path transform="translate(849,518)" d="m0 0c1.74 0.25 1.74 0.25 3.51 0.5 4.12 0.51 8.12 0.57 12.3 0.49 1.5-0.02 3-0.04 4.5-0.06 1.16-0.01 1.16-0.01 2.36-0.03 24.8-0.28 49.2 1.39 73.4 7.1 1.16 0.26 2.33 0.52 3.53 0.78 22.8 5.28 43.6 17.5 56.5 37.2 15 25.5 13.6 60.9 7.12 88.8-2.93 10.5-8 18.3-15.2 26.3-0.52 0.58-1.03 1.15-1.57 1.74-3.83 4.09-3.83 4.09-6.42 4.67-0.94 0.26-0.94 0.26-1.89 0.53l-1 3c-2.44 1.61-4.82 3.04-7.38 4.44-0.72 0.4-1.44 0.8-2.19 1.21-5.63 3.06-11.3 5.45-17.4 7.35-1.43 0.49-1.43 0.49-2.89 0.98-10.6 3.48-21.4 5.53-32.4 7.21-1.6 0.25-1.6 0.25-3.23 0.5-17.4 2.54-35 2.46-52.5 2.44-2.14 0-4.29 0-6.43 0.01-4.45 0-8.9 0-13.4-0.01-5.71-0.01-11.4 0-17.1 0-4.41 0.01-8.82 0.01-13.2 0-2.11 0-4.22 0-6.33 0.01-2.93 0-5.85-0.01-8.77-0.01-0.88 0-1.75 0-2.65 0.01-5.96-0.03-5.96-0.03-7.07-1.14-0.1-2.63-0.14-5.24-0.13-7.87v-2.5c-0.01-2.74-0.01-5.48 0-8.22 0-1.89 0-3.79-0.01-5.69 0-3.98 0-7.96 0.01-12 0.01-5.11 0-10.2 0-15.3-0.01-3.92-0.01-7.84 0-11.8 0-1.88 0-3.77-0.01-5.65 0-2.64 0.01-5.27 0.01-7.9 0-0.79 0-1.57-0.01-2.37 0.02-3.19 0.12-5.71 1.14-8.76h3c0.4-0.96 0.4-0.96 0.81-1.94 1.19-2.06 1.19-2.06 4.19-3.06 0.31-0.64 0.62-1.28 0.94-1.94 1.06-2.06 1.06-2.06 3.12-3.06 0.96-0.5 0.96-0.5 1.94-1 0.15-0.6 0.29-1.19 0.44-1.81 0.67-2.62 1.78-4.12 3.44-6.25 0.51-0.67 1.02-1.35 1.55-2.04 1.57-1.9 1.57-1.9 3.07-3.35 16.1-16.6 23.6-44.7 28.5-66.6 0.31-1.36 0.62-2.72 0.94-4.08 0.5-2.19 1-4.39 1.48-6.58 0.58-2.34 0.58-2.34 1.58-4.34z" fill="#FAFEFE"/>
<path transform="translate(688,425)" d="m0 0c0.03 1.35 0.05 2.71 0.06 4.06 0.01 0.76 0.03 1.51 0.04 2.29-0.1 2.65-0.1 2.65-0.6 5.87-0.49 3.71-0.58 7.18-0.53 10.9 0.02 1.38 0.03 2.76 0.04 4.14 0.01 0.72 0.02 1.44 0.03 2.18 0.56 56.2 0.56 56.2-11.7 78.1-1.33 2.41-2.36 4.83-3.33 7.41h-2c-0.11 0.59-0.22 1.17-0.33 1.77-2.6 8.61-13.3 15.7-20.7 20.2-5.17 2.7-10.6 4.89-16 7-1-3.32-1.12-6.33-1.12-9.8v-3.58c0-1.3 0-2.59 0.01-3.93v-4.14c0-3.74 0-7.48 0.01-11.2 0-3.91 0.01-7.82 0.01-11.7 0-7.41 0.01-14.8 0.02-22.2 0.01-8.44 0.01-16.9 0.02-25.3 0.01-17.4 0.03-34.7 0.05-52l12.1-0.42c1.37-0.05 2.73-0.1 4.1-0.14 34.5-1.22 34.5-1.22 39.8 0.56z" fill="#0048AD"/>
<path transform="translate(502 926)" d="m0 0c7.89 5.18 11.1 13.4 14.7 21.8 0.38 0.83 0.77 1.65 1.16 2.5 5 14.9 2.91 35.2-3.6 49.1-1.36 2.71-2.26 4.16-4.72 5.96-0.91 0.7-0.91 0.7-1.84 1.41v3c-20.4 5.09-20.4 5.09-29 0-7.82-5.08-14.9-11.6-17-21-0.12-2.87-0.12-2.87 0-5h-2c-3.03-6.06-2.15-14.4-2.12-21.1-0.01-0.84-0.01-1.69-0.02-2.56 0.02-11.7 1.69-23.6 10.1-32.4 2.75-1.75 2.75-1.75 6-3 0.69-0.27 1.39-0.55 2.1-0.84 9.54-3.55 17.2-2.66 26.2 2.04z" fill="#FAFEFE"/>
<path transform="translate(614 926)" d="m0 0c5.59 5.3 6.1 9.59 6.53 17.1-0.04 4.54-0.67 6.6-3.03 10.4-0.35 0.59-0.71 1.19-1.07 1.8-2.95 4.58-6.37 7.25-10.9 10.2 3.04 5.95 5.98 11.5 10.6 16.4 1.39 1.63 1.39 1.63 2.8 3.99 7.08 11.8 16.8 20 28.6 26.6l-1 2h-3c-1.3 0.06-2.61 0.12-3.95 0.18-15.8 0.54-15.8 0.54-22-5.18v-2h-2v-2h-2c-1.81-2.42-3.51-4.85-5.19-7.37-0.99-1.48-1.99-2.96-2.98-4.43-0.49-0.72-0.97-1.45-1.47-2.19-1.72-2.54-3.51-5.02-5.3-7.51-2.06-2.91-3.77-5.78-5.31-9-1.48-3.67-1.48-3.67-4.75-5.5h-9c0.5 19.8 0.5 19.8 1 40l8 4v1c-3.34 0.08-5.8 0.07-9-1l-1 1c-6.72 0.41-13.3-0.12-20-1l1-3c0.99-0.49 0.99-0.49 2-1 0.07-10.6 0.12-21.3 0.16-31.9 0.01-4.94 0.03-9.88 0.07-14.8 0.03-4.76 0.05-9.53 0.05-14.3 0.01-1.82 0.02-3.64 0.04-5.46 0.02-2.55 0.02-5.09 0.02-7.64 0.01-0.76 0.02-1.51 0.03-2.29-0.01-4.01-0.01-4.01-1.72-7.53-2.15-1.37-4.14-1.71-6.65-2.05l1-2c51.9-1.98 51.9-1.98 59.5 4.44z" fill="#0151C0"/>
<path transform="translate(919 926)" d="m0 0c0.89-0.02 1.77-0.03 2.68-0.05 7.35 0 12.2 1.69 17.5 6.93 9.7 10.1 12.5 23.7 12.4 37.3-0.01 1.05-0.01 2.1-0.02 3.18-0.27 12.1-2.55 22.1-11.4 30.9-1.94 1.52-3.87 2.74-6 4-0.33 0.66-0.65 1.32-1 2h-4c-0.33 0.66-0.65 1.32-1 2-16.4 0.27-16.4 0.27-20.9-3.31-3.44-4.34-3.25-7.94-3.25-13.4-0.01-0.66-0.01-1.33-0.01-2.01v-6.59-4.58-9.61c0.01-4.1 0.01-8.2 0-12.3v-9.48-4.53c0-2.12 0-4.23 0.01-6.35v-3.64c0.11-2.88 0.35-5.43 1.12-8.2 4.11-2.99 9.02-2.33 13.9-2.31z" fill="#FAFEFE"/>
<path transform="translate(879,922)" d="m0 0c5.92-0.02 11.8-0.04 17.8-0.05l6.03-0.03c2.91-0.01 5.81-0.01 8.72-0.02 0.88 0 1.77-0.01 2.68-0.01 14.9 0 28.8 1.65 40.5 11.8 10.3 10.6 10.3 10.6 10.3 15.3h2c1.9 6.43 2.34 12.3 2.31 19 0.02 0.95 0.03 1.89 0.05 2.87 0.01 6.11-0.86 10.6-3.36 16.1-0.33 0.78-0.65 1.55-0.99 2.36-2.1 4.35-4.38 7.36-8.01 10.6-0.7 0.8-1.4 1.61-2.12 2.44-17 15.2-41.6 13.5-62.9 12.6-3.34-0.26-6.67-0.58-10-1 0.81-0.66 1.63-1.32 2.46-2 3.13-3.7 3.23-6.33 3.12-11 0.01-0.78 0.01-1.57 0.01-2.38 0-2.59-0.03-5.17-0.07-7.76 0-1.8-0.01-3.6-0.01-5.41-0.01-4.73-0.06-9.47-0.11-14.2-0.03-3.87-0.05-7.74-0.06-11.6-0.01-4.61-0.04-9.22-0.07-13.8 0-0.89-0.01-1.77-0.01-2.67-0.02-2.49-0.04-4.98-0.07-7.47 0-0.74-0.01-1.48-0.01-2.24-0.04-3.09-0.2-5.51-1.18-8.46l-8-1 1-2zm26 6c-1.1 3.94-1.13 7.75-1.15 11.8 0 0.67 0 1.33-0.01 2.02 0 2.19-0.01 4.38-0.01 6.57 0 1.52 0 3.05-0.01 4.58 0 3.2-0.01 6.39-0.01 9.59 0 4.09-0.01 8.19-0.03 12.3-0.01 3.15-0.01 6.31-0.01 9.46 0 1.51 0 3.02-0.01 4.53-0.01 2.11-0.01 4.22 0 6.33 0 1.2-0.01 2.4-0.01 3.63 0.33 4.21 1.42 7.04 3.87 10.4 5.72 4.21 14.6 2.86 21.4 2.75v-2h4c1.59-1.31 1.59-1.31 3-3 1.14-0.94 2.29-1.88 3.44-2.81 7.54-6.53 10.9-15.1 11.8-24.9 0.9-17.4-0.16-32.7-12-46.3-4.59-4.88-8.13-7.02-15-7.24-1.78 0-3.56 0-5.34 0.02-1.35-0.01-1.35-0.01-2.72-0.02h-2.63c-1.18 0.01-1.18 0.01-2.38 0.01-2.58 0.3-4.1 0.72-6.21 2.26z" fill="#0150C0"/>
<path transform="translate(484,920)" d="m0 0c13-0.59 26.9-0.12 37 9 10 9.69 17.2 21.4 17.6 35.6 0 0.87-0.01 1.74-0.01 2.64v2.76c-0.26 10.3-3.1 18.8-10.6 26-0.5 1.49-0.5 1.49-1 3-3.54 3.74-7.15 6.25-12 8-0.41 0.46-0.82 0.92-1.24 1.39-2.45 2.24-5.03 3.08-8.14 4.23-1.12 0.43-2.24 0.86-3.39 1.29-6.53 2.2-12.4 2.26-19.2 2.09-0.71 0.02-1.42 0.04-2.15 0.05-8.3-0.22-15.7-5.21-22.8-9.05v-2c-0.76-0.25-1.53-0.5-2.31-0.75-2.95-1.37-4.05-2.49-5.69-5.25v-2c-0.99-0.33-1.98-0.66-3-1-0.5-2.48-0.5-2.48-1-5h-2c-5.64-15.7-6.1-31.2 0.56-46.6 1.44-2.38 1.44-2.38 3.44-3.38 0.29-0.61 0.58-1.21 0.88-1.84 1.32-2.54 2.81-3.88 5-5.72 0.67-0.58 1.35-1.16 2.05-1.76 0.68-0.55 1.37-1.11 2.07-1.68 0.66-0.57 1.33-1.13 2.01-1.71 1.99-1.29 1.99-1.29 5.99-1.29v-2c1.43-0.56 2.87-1.1 4.31-1.62 0.8-0.31 1.6-0.61 2.43-0.92 0.74-0.15 1.49-0.3 2.26-0.46l3 2c-0.66 0.27-1.33 0.54-2.01 0.81-6.58 2.92-10 5.63-13 12.2-0.46 1-0.46 1-0.93 2.01-3.17 7.66-3.24 15.6-3.19 23.8v2.65c0.04 6.22 0.33 12.4 1.12 18.5h2c0.22 1.05 0.22 1.05 0.45 2.12 2.59 11 7.95 17.9 17.6 23.9 8.17 3.8 18.8 1.84 27-1 1.36-1.97 1.36-1.97 2-4 0.99-0.33 1.98-0.66 3-1 0.62-1.85 0.62-1.85 1-4 0.62-1.39 1.27-2.76 1.94-4.12 5.76-13 6.71-32.3 2.06-45.9-4.52-10.9-9.62-21.1-21-26-4.31-0.96-8.61-1.55-13-2l1-2z" fill="#0150C1"/>
<path transform="translate(1078,921)" d="m0 0c2.68 1.01 3.78 1.54 5.05 4.16 0.34 1.22 0.34 1.22 0.7 2.46 0.24 0.82 0.48 1.64 0.73 2.48 0.17 0.63 0.34 1.25 0.52 1.9h2c0.29 0.74 0.58 1.48 0.88 2.24 2.92 7.22 6.31 14 10.1 20.8 1.02 1.99 2.02 3.99 3 6 0.79 1.58 1.58 3.17 2.38 4.75 1.66 3.33 3.33 6.67 5 10 0.41 0.82 0.82 1.64 1.24 2.49 1.02 2.04 2.03 4.07 3.04 6.12 3.23 6.51 6.55 13 10.1 19.3 0.82 1.49 1.59 3.02 2.31 4.57 0.31 0.57 0.63 1.14 0.95 1.73 1.33 0.34 2.66 0.68 4 1 1.48 1.98 1.48 1.98 3 4h-33l4-4c-0.18-8.02-5.27-15.9-9-22.9-1.23-2.62-2.09-5.4-3-8.14h-37l-1 5c-0.62 1.54-1.29 3.06-2 4.56-2.73 5.8-4.21 11.4-2.31 17.8 1.79 2.3 3.56 2.82 6.31 3.69 2.93 0.98 4.61 2.11 7 4-19.3 0.19-19.3 0.19-29-1l-1-3c0.8-0.25 1.61-0.5 2.44-0.75 0.84-0.41 1.69-0.83 2.56-1.25 0.37-1.32 0.69-2.66 1-4 1-2.12 2.05-4.22 3.12-6.31 2.95-5.78 5.74-11.6 8.46-17.5 1.46-3.15 2.95-6.29 4.54-9.38 2.15-4.2 3.87-8.57 5.66-12.9 1.01-2.39 2.09-4.7 3.28-7 1.41-2.73 2.59-5.46 3.69-8.32 3-7.7 6.69-15.1 10.2-22.6z" fill="#0251C1"/>
<path transform="translate(558 1207)" d="m0 0c2.06 0.66 2.06 0.66 4.19 3.17 3.63 3.15 6.34 3.19 10.9 3.12 0.81 0.01 1.62 0.02 2.46 0.03 2.72 0.01 5.44 0 8.17-0.02 1.97 0 3.94 0.01 5.9 0.02 5.42 0.02 10.8 0.01 16.3 0 5.84-0.01 11.7 0 17.5 0.02 11.4 0.02 22.9 0.02 34.3 0 9.3-0.01 18.6-0.01 27.9-0.01h2c2.68 0.01 5.36 0.01 8.04 0.01 25.2 0.01 50.3 0 75.4-0.03 22.4-0.02 44.7-0.02 67 0.01 25.1 0.02 50.2 0.03 75.3 0.02 2.67 0 5.35-0.01 8.02-0.01h3.99c9.29 0 18.6 0 27.9 0.02 11.3 0.01 22.6 0.01 34-0.02 5.77-0.01 11.6-0.02 17.3 0 5.28 0.01 10.6 0 15.8-0.02 1.91-0.01 3.83-0.01 5.74 0.01 2.6 0.01 5.2 0 7.79-0.03 0.75 0.01 1.5 0.03 2.28 0.04 3.99-0.07 5.54-0.46 8.55-3.17 1.1-1.24 1.1-1.24 2.22-2.5 3.97-0.62 6-0.66 9.38 1.57 2.51 3.76 3.02 7.31 2.18 11.8-2.1 2.27-4.39 3-7.39 3.63-3.95 0.1-6.05-1.59-9.17-3.95l-1-3c-45.3 0.01-90.6 0.03-136 0.08h-2.03c-14.6 0.02-29.1 0.03-43.7 0.05-7.14 0.01-14.3 0.02-21.4 0.03h-2.16c-23 0.03-46.1 0.04-69.2 0.04-23.7 0-47.4 0.02-71 0.06-15.3 0.03-30.5 0.04-45.8 0.03-10-0.01-20 0.01-30 0.03-5.77 0.02-11.6 0.03-17.3 0.01-5.28-0.01-10.6 0-15.8 0.03-1.91 0-3.83 0-5.74-0.01-2.6-0.02-5.19 0-7.79 0.02-0.75-0.01-1.5-0.02-2.27-0.03-4 0.07-5.58 0.49-8.64 3.16-0.7 0.83-1.41 1.65-2.14 2.5-3.11 0.91-5.85 0.71-9 0-3.12-2.12-3.12-2.12-5-5-0.16-3.97 0.75-5.64 3.06-8.87 3.3-2.39 4.95-2.71 8.88-2.79z" fill="#707275"/>
<path transform="translate(764,922)" d="m0 0c7.64-0.05 15.3-0.08 22.9-0.1 3.55-0.01 7.1-0.03 10.6-0.05 4.07-0.03 8.15-0.04 12.2-0.05 1.28-0.01 2.55-0.02 3.86-0.03h3.58c1.57 0 1.57 0 3.16-0.01 2.6 0.24 2.6 0.24 5.6 2.24 1.27 4.04 1.1 8.11 1.06 12.3-0.01 1.26-0.02 2.51-0.02 3.8-0.02 0.96-0.03 1.91-0.04 2.89-2.34-2.26-4.16-4.25-5.94-7-3.35-4.88-6.72-7.47-12.6-8.76-5.43-0.53-12.5-0.72-17.5 1.76-1.17 4-1.12 7.91-1.1 12 0 0.99 0 0.99 0.01 2 0 2.09 0.01 4.17 0.03 6.26 0 1.43 0.01 2.85 0.01 4.27 0.01 3.47 0.03 6.95 0.05 10.4 3.19-0.11 6.38-0.24 9.56-0.38 1.35-0.04 1.35-0.04 2.72-0.09 5.23-0.23 9.75-0.85 14.7-2.53l1-4h3v24c-0.5-1.98-0.5-1.98-1-4-0.99-0.33-1.98-0.66-3-1-0.8-0.99-1.61-1.98-2.44-3-2.37-3.36-2.37-3.36-6.56-4h-19l1 39c7.53 2.51 19 2.41 26.4-0.81 1.23-0.69 2.44-1.42 3.62-2.19 0.76-0.43 1.53-0.87 2.31-1.31 1.69-1.69 2.6-3.18 3.75-5.25 1.94-3.44 1.94-3.44 4.94-5.44l-1 21c-9 1-9 1-12.3 0.5-3.24-0.44-5.49-0.39-8.69-0.04-8.9 0.81-17.8 0.65-26.8 0.6-1.78 0-3.55-0.01-5.33-0.01-4.31-0.01-8.61-0.03-12.9-0.05 0.5-0.99 0.5-0.99 1-2 2.31-0.73 4.65-1.4 7-2 0.02-10.8 0.04-21.5 0.05-32.3 0.01-5 0.01-10 0.03-15 0.01-4.83 0.01-9.65 0.01-14.5 0.01-1.85 0.01-3.69 0.02-5.53v-7.73c0.01-0.77 0.01-1.53 0.01-2.32 0-3.15-0.11-5.62-1.12-8.64l-8-1 1-2z" fill="#0150C0"/>
<path transform="translate(394 922)" d="m0 0c1.81 0.01 1.81 0.01 3.66 0.01h1.97c1.37 0.01 2.75 0.01 4.12 0.03 2.09 0.02 4.18 0.02 6.27 0.02 5.8 0.02 11.4 0.09 17.1 1.18-2.97 1.66-5.66 2.39-9 3 0.01 1.15 0.01 2.3 0.02 3.49 0.04 10.9 0.07 21.8 0.09 32.7 0.01 5.6 0.02 11.2 0.05 16.8 0.02 5.4 0.03 10.8 0.03 16.2 0.01 2.05 0.01 4.11 0.03 6.17 0.1 20.7 0.1 20.7-2.22 30.7h-2c-0.1 0.75-0.21 1.49-0.32 2.25-1.37 5.58-5.47 9.33-10.2 12.4-7.39 3.73-14.1 4.72-22.1 2.71-2.44-0.89-4.31-1.73-6.35-3.34-1.42-3.93-1.3-5.96-0.12-9.93 2.4-2.34 3.25-2.57 6.5-2.88 2.98 0.15 4.19 0.38 6.32 2.51 2.09 3.24 3.3 5.39 3.3 9.3l8 2-1-3 2-3c0.3-2.18 0.3-2.18 0.25-4.63 0.01-0.95 0.01-1.9 0.01-2.88 0-1.04-0.01-2.08-0.01-3.15v-3.33c0.01-3.64 0-7.28-0.02-10.9v-7.57c0-5.29-0.01-10.6-0.02-15.9-0.02-6.11-0.02-12.2-0.02-18.4 0-5.88 0-11.8-0.01-17.6-0.01-2.51-0.01-5.01-0.01-7.51 0-3.5-0.01-7-0.02-10.5v-3.16c0-0.95-0.01-1.9-0.01-2.88 0-0.82-0.01-1.65-0.01-2.5-0.05-2.32-0.05-2.32-1.13-5.13l-10-1c2-2 2-2 4.89-2.24z" fill="#0050C0"/>
<path transform="translate(1147,917)" d="m0 0h2v2c3.12 1.04 5.36 1.15 8.63 1.19 1.73 0.02 1.73 0.02 3.5 0.05 1.25 0.01 2.5 0.03 3.78 0.04 1.92 0.03 1.92 0.03 3.87 0.06 4.79 0.07 9.58 0.13 14.4 0.19 4.69 0.06 9.38 0.12 14.1 0.19 1.25 0.01 2.5 0.03 3.79 0.04 1.15 0.02 2.3 0.03 3.49 0.05 1.01 0.01 2.03 0.03 3.08 0.04 2.42 0.15 2.42 0.15 4.42 1.15-0.63 3.04-1.64 5.38-3.19 8.06-1.96 3.44-3.87 6.89-5.75 10.4-2.87 5.28-5.94 10.4-9.06 15.6-7.2 11.9-7.2 11.9-14 24h-2c-0.19 1.11-0.19 1.11-0.38 2.25-0.57 2.55-1.36 4.48-2.62 6.75h-2c-0.18 0.61-0.36 1.23-0.55 1.86-0.25 0.81-0.5 1.62-0.76 2.45-0.25 0.8-0.49 1.6-0.74 2.43-1.01 2.41-2.09 3.48-3.95 5.26-1.2 2-1.2 2-2.19 4.12-0.34 0.71-0.69 1.41-1.04 2.14-0.84 1.58-0.84 1.58-0.77 2.74 4.86 0.07 9.71 0.13 14.6 0.16 1.65 0.02 3.3 0.04 4.95 0.07 2.38 0.03 4.76 0.05 7.14 0.06 0.73 0.02 1.46 0.03 2.21 0.05 5.69 0 10.6-1.01 14.9-5.03 0.39-0.43 0.79-0.86 1.19-1.31h2c0.27-0.74 0.54-1.49 0.81-2.25 1.14-2.64 2.4-4.52 4.19-6.75 0.99-1.49 0.99-1.49 2-3-0.12 2.36-0.24 4.71-0.38 7.06-0.06 1.31-0.13 2.62-0.21 3.98-0.4 3.87-1.3 7.24-2.41 11-23.4 0.91-46.6 0.99-70 0-1.13-3.72-1.13-3.72 0-6.23 0.52-0.79 1.03-1.58 1.56-2.39 0.85-1.33 0.85-1.33 1.71-2.69 0.57-0.89 1.14-1.77 1.73-2.69 0.94-1.56 1.88-3.12 2.81-4.69 1.76-2.93 3.52-5.86 5.29-8.78 4.38-7.27 8.66-14.6 12.8-22 4.1-7.18 8.41-14.2 12.7-21.3 1.45-2.39 1.45-2.39 2.9-5.52 1.44-2.75 1.44-2.75 3.44-3.75 0.91-2.11 0.91-2.11 1.62-4.56 0.27-0.83 0.53-1.66 0.79-2.51 0.2-0.63 0.39-1.27 0.59-1.93-22.7-0.8-22.7-0.8-42.4 9.3-2.5 2.64-3.99 5.46-5.61 8.7-2.64-7.93 1.22-18.1 3-26z" fill="#0151C0"/>
<path transform="translate(1089 1079)" d="m0 0c3.4 1.42 4.83 2.56 6.3 5.96 0.49 4.27 0.37 7.92-1 12-0.86 0.79-1.73 1.57-2.62 2.38-2.6 2.32-2.6 2.32-2.5 4.94 2.17 5.19 5.03 9.8 9.12 13.7 0.79 0.81 1.57 1.61 2.38 2.44 2.57 2.6 2.57 2.6 5.44 4.75 0.72 0.6 1.44 1.2 2.18 1.81v2c5.66-1.29 5.66-1.29 9.58-5.28 1.24-2.54 2.36-5.1 3.42-7.72 1.18-2.55 1.99-3.98 4-6 0.85-2.3 1.53-4.64 2.22-7 0.78-2 0.78-2 2.78-3 0.36-1.66 0.69-3.33 1-5 0.77-1.85 1.58-3.68 2.44-5.5 1.63-3.46 3.17-6.93 4.56-10.5 4.36 1.47 5.75 4.56 7.69 8.44 0.34 0.66 0.68 1.31 1.03 1.98 3.18 6.21 6.11 12.5 9.05 18.8 2.42 5.15 5.02 10 8.14 14.8 1.09 1.91 1.09 1.91 1.63 4.11 0.15 0.59 0.31 1.19 0.46 1.8l2 1h-18v-2h3c-0.73-2.08-1.48-4.17-2.25-6.25-0.41-1.16-0.83-2.32-1.26-3.51-1.48-3.22-2.69-5.08-5.49-7.24-3.26 0.21-3.26 0.21-7 1-3.33 0.11-6.66 0.07-10 0-2.66 4.56-3.31 7.74-3 13l4 2v2l2 1c-5.49 1.65-11.2 1.19-16.9 1.19-1.77 0.02-1.77 0.02-3.58 0.04-1.14 0-2.28 0-3.45 0.01-1.56 0-1.56 0-3.14 0.01-4.95-0.42-8.07-1.93-11.3-5.68-3.43-4.09-6.21-8.48-8.95-13-1.7-2.55-3.34-4.54-5.68-6.52h-3l-1 20h2l2 5c-0.5-0.16-1-0.32-1.51-0.49-3.41-0.69-6.77-0.61-10.2-0.57-0.69 0.01-1.39 0.01-2.11 0.02-1.71 0.01-3.42 0.03-5.14 0.04l1-2c1.98-0.49 1.98-0.49 4-1l1-45-4-2-1-2c7.54-3.76 22-1.27 29.7 1.04z" fill="#76787B"/>
<path transform="translate(698,921)" d="m0 0c1.98 0.33 3.96 0.66 6 1v1c-0.59 0.18-1.18 0.36-1.79 0.55-4.46 1.42-8.21 2.98-12.2 5.45h-3c-0.27 0.57-0.54 1.15-0.82 1.74-1.21 2.31-2.6 4.33-4.12 6.45-7.74 11.5-8.4 26.1-6.72 39.6 0.45 2.13 1 4.17 1.66 6.24 0.19 0.66 0.39 1.32 0.59 2 3.05 9.25 8.33 15.7 16.4 21 1.07 0.76 2.14 1.53 3.25 2.31 5.32 3.26 10.7 2.94 16.8 3 0.9 0.03 1.8 0.06 2.73 0.09 5.29 0.12 5.29 0.12 9.83-2.29 3.19-4.68 2.66-8.96 2.69-14.5 0.02-0.95 0.04-1.91 0.06-2.9 0.01-0.93 0.01-1.85 0.02-2.81 0.01-0.84 0.02-1.69 0.03-2.56-0.44-2.88-1.37-4.24-3.36-6.35-2.49-0.7-2.49-0.7-5.19-0.75-1.35-0.09-1.35-0.09-2.73-0.17-1.03-0.04-1.03-0.04-2.08-0.08v-1c3.65-0.84 7.03-1.13 10.8-1.13 1.09 0 2.18-0.01 3.3-0.01 1.69 0.01 1.69 0.01 3.42 0.02 1.13-0.01 2.26-0.01 3.42-0.02 1.63 0.01 1.63 0.01 3.3 0.01h3c2.69 0.13 5.15 0.53 7.78 1.13-0.65 0.52-1.3 1.04-1.98 1.58-2.67 3.2-2.48 5.02-2.41 9.15 0.02 1.95 0.02 1.95 0.04 3.93 0.03 1.36 0.07 2.73 0.1 4.09 0.02 1.38 0.04 2.76 0.05 4.14 0.05 3.37 0.12 6.74 0.2 10.1-6.02 1.94-11.8 3.52-18.1 4.19-1.08 0.12-1.08 0.12-2.18 0.24-7.58 0.77-15.1 0.83-22.7 0.57-0.87-0.03-1.75-0.06-2.65-0.09-9.34-0.67-17.4-5.27-25.4-9.91-0.89-0.45-1.77-0.91-2.69-1.38-3.33-2.34-5.97-5.28-8.31-8.62v-2h-2c-7.69-11.7-8.22-24.7-5.75-38 2.72-10.7 9.37-20.2 18.8-26 2.31-1.27 4.65-2.5 7-3.69 0.59-0.3 1.18-0.61 1.79-0.93 3.72-1.87 7.05-3.02 11.2-3.38l2 1v-2z" fill="#0151C1"/>
<path transform="translate(554,922)" d="m0 0h28v4l-2 2c-0.18 2.8-0.23 5.49-0.2 8.29 0.01 1.23 0.01 1.23 0.01 2.48 0.01 2.62 0.04 5.24 0.07 7.85 0.01 1.78 0.01 3.55 0.02 5.33 0.02 4.35 0.06 8.7 0.1 13l7 2v2l-8 1c0.5 19.8 0.5 19.8 1 40l8 4v1c-3.34 0.07-5.8 0.07-9-1l-1 1c-6.72 0.41-13.3-0.13-20-1l1-3c0.99-0.5 0.99-0.5 2-1 0.07-10.6 0.12-21.3 0.16-31.9 0.01-4.94 0.03-9.88 0.07-14.8 0.03-4.77 0.05-9.53 0.05-14.3 0.01-1.82 0.02-3.64 0.04-5.46 0.02-2.54 0.02-5.09 0.02-7.63 0.01-0.76 0.02-1.51 0.03-2.29-0.01-4.01-0.01-4.01-1.72-7.53-2.15-1.37-4.14-1.71-6.65-2.05l1-2z" fill="#0252C1"/>
<path transform="translate(986,922)" d="m0 0c4.31-0.03 8.62-0.05 12.9-0.06 1.21-0.01 2.42-0.02 3.67-0.03 6.56-0.02 12.9 0.2 19.4 1.09v1c-0.63 0.12-1.25 0.24-1.9 0.37-0.82 0.16-1.63 0.33-2.48 0.51-0.81 0.16-1.62 0.32-2.46 0.49-2.35 0.5-2.35 0.5-4.16 2.63-0.21 2.57-0.3 5.03-0.31 7.6 0 0.78-0.01 1.57-0.02 2.37-0.03 2.6-0.03 5.2-0.04 7.8-0.01 1.81-0.02 3.61-0.03 5.41-0.01 3.79-0.02 7.57-0.03 11.4 0 4.85-0.04 9.7-0.08 14.6-0.03 3.73-0.04 7.45-0.04 11.2-0.01 1.79-0.02 3.58-0.04 5.37-0.03 2.5-0.02 5-0.01 7.5-0.01 0.74-0.03 1.48-0.04 2.24 0.05 3.75 0.31 5.28 2.99 7.99 1.31 0.8 1.31 0.8 2.65 1.63l3 2c-3.21 0.03-6.42 0.05-9.62 0.06-0.91 0.01-1.81 0.02-2.74 0.03-4.69 0.01-9.02-0.22-13.6-1.09-1.62-0.06-3.25-0.09-4.88-0.06-1.17 0.01-1.17 0.01-2.36 0.02-0.58 0.02-1.16 0.03-1.76 0.04v-2c4.46-0.99 4.46-0.99 9-2 0.02-10.6 0.04-21.3 0.05-31.9 0.01-4.94 0.01-9.88 0.03-14.8 0.01-4.77 0.01-9.53 0.01-14.3 0.01-1.82 0.01-3.64 0.02-5.46v-7.63c0.01-0.76 0.01-1.51 0.01-2.29 0-3.14-0.12-5.58-1.12-8.58-2.97-0.5-2.97-0.5-6-1v-2z" fill="#0150C0"/>
<path transform="translate(627 1080)" d="m0 0c0.6 0.54 1.2 1.07 1.81 1.62v2h2c6.01 9.78 7.47 19.5 5.19 30.8-1.23 4.95-3.36 9.01-6.19 13.2-5.22 1.72-10.2 1.21-15.2-1-6.65-3.59-9.57-8-11.8-15-0.5-3.37-0.52-6.65-0.43-10.1-0.01-0.84-0.02-1.69-0.03-2.56 0.06-6.08 0.7-12.3 4.95-17 5.51-4.91 13.2-4.78 19.7-1.97z" fill="#FAFEFE"/>
<path transform="translate(655,1078)" d="m0 0h30v2c0.6 0.06 1.2 0.12 1.81 0.19 2.19 0.81 2.19 0.81 4 2.75 1.74 4.47 0.94 8.4 0.19 13.1-0.99 0.33-1.98 0.66-3 1-1.11 1.88-1.11 1.88-2 4l-2 3c7.07 9.92 13.8 19.2 24 26-14.9 1.03-14.9 1.03-19.4-2.69-2.37-2.56-3.51-4.73-3.62-8.31h-2v-2h-2c-0.35-0.64-0.7-1.28-1.06-1.93-0.45-0.83-0.91-1.66-1.38-2.51-0.45-0.82-0.9-1.64-1.37-2.49-1.03-1.99-1.03-1.99-2.19-3.07h-5l-1 19c0.99 0.33 1.98 0.66 3 1l1 4h-18v-3l4-2v-45h-2v-2l-2-1z" fill="#74767A"/>
<path transform="translate(484,920)" d="m0 0c13-0.59 26.9-0.12 37 9 9.2 8.89 16.8 20.1 17.4 33.2 0.02 1.78 0.02 3.56 0.01 5.34 0.03 1.33 0.03 1.33 0.06 2.68-0.01 6.45-1.48 11.2-4.5 16.8l-1 2c-6.35 0.49-6.35 0.49-9.31-1.75-2.65-3.53-3.92-6.2-4.03-10.6-0.03-0.83-0.06-1.67-0.09-2.52-0.02-0.88-0.05-1.76-0.07-2.66-0.63-14.7-2.75-28.9-13-40.2-7.31-6.52-13.7-8.19-23.5-9.19l1-2z" fill="#0150C0"/>
<path transform="translate(879,922)" d="m0 0c5.92-0.02 11.8-0.04 17.8-0.05l6.03-0.03c2.91-0.01 5.81-0.01 8.72-0.02 0.88 0 1.77-0.01 2.68-0.01 17.1 0 17.1 0 22 3.17 0.6 0.64 1.19 1.28 1.81 1.94l-1 1c2.48 0.99 2.48 0.99 5 2v2c-3.51 0.4-4.72 0.21-7.62-1.94-0.79-0.68-1.57-1.36-2.38-2.06-2.83-0.94-4.59-1.13-7.53-1.13-0.87 0-1.75-0.01-2.65-0.01-0.91 0.01-1.82 0.01-2.76 0.02-0.9-0.01-1.81-0.01-2.75-0.02-0.87 0-1.75 0.01-2.65 0.01h-2.42c-2.2 0.13-4.12 0.52-6.24 1.13l-1 7h-2v25h-3c-0.06 0.59-0.11 1.19-0.17 1.8-0.25 2.73-0.51 5.47-0.77 8.2-0.08 0.93-0.17 1.87-0.26 2.83-0.4 4.25-0.83 8.49-1.4 12.7-0.36 3.14-0.18 4.54 0.6 7.45-0.29 2.01-0.62 4.01-1 6v3c-0.88 1.94-0.88 1.94-2 4-0.37 0.74-0.74 1.49-1.12 2.25-0.29 0.58-0.58 1.15-0.88 1.75l-1-3h-2c-1.48-2.97-1.17-5.99-1.19-9.25-0.01-0.74-0.02-1.49-0.02-2.26-0.02-1.62-0.04-3.25-0.05-4.87-0.02-2.57-0.05-5.13-0.08-7.7-0.06-5.45-0.11-10.9-0.16-16.4-0.06-6.31-0.12-12.6-0.19-18.9-0.03-2.53-0.05-5.06-0.07-7.59-0.02-1.55-0.03-3.1-0.05-4.65 0-0.71-0.01-1.41-0.01-2.14-0.04-3.02-0.22-5.35-1.18-8.24l-8-1 1-2z" fill="#0049AD"/>
<path transform="translate(598 926)" d="m0 0c5.99 7.49 6.67 14.9 6 24.3-0.77 6.05-1.38 10-5.75 14.5-6.12 2.32-11.6 2.24-18 1-2.04-2.04-1.21-6.24-1.24-9.05-0.01-0.81-0.01-1.62-0.02-2.45-0.02-1.72-0.03-3.44-0.04-5.16-0.01-2.63-0.06-5.26-0.1-7.88l-0.03-5.01c-0.01-0.78-0.03-1.57-0.05-2.38 0.02-3.59 0.15-5.64 2.36-8.54 5.29-3.8 11.8-3.34 16.9 0.66z" fill="#F8FDFD"/>
<path transform="translate(842,1078)" d="m0 0c13.8-1.68 13.8-1.68 18.9 2.27 2.24 2.82 4.17 5.67 6.07 8.73 0.74 0.9 1.47 1.81 2.23 2.74 1.77 2.26 1.77 2.26 1.77 4.26 0.99 0.33 1.98 0.66 3 1 1.82 2 1.82 2 3.69 4.44 0.62 0.8 1.24 1.6 1.88 2.43 1.43 2.13 1.43 2.13 1.43 4.13h2c1.37 1.29 2.71 2.62 4 4l1-8h2c-0.14-11.6-0.14-11.6-5-22v-2h-2v-2c1.96-0.05 3.92-0.09 5.88-0.12 1.63-0.04 1.63-0.04 3.3-0.08 2.82 0.2 2.82 0.2 4.82 2.2-1.22 0.41-1.22 0.41-2.46 0.83-2.69 1.86-2.69 1.86-3.03 4.3-0.19 2.9-0.23 5.76-0.22 8.66-0.01 1.06-0.03 2.13-0.04 3.22-0.05 3.39-0.05 6.78-0.06 10.2-0.03 2.3-0.05 4.6-0.08 6.89-0.06 5.64-0.1 11.3-0.11 16.9-4.41-2.86-7.86-5.71-11.4-9.62-1.31-1.45-1.31-1.45-2.64-2.92-1.98-2.46-1.98-2.46-1.98-4.46-0.99-0.33-1.98-0.66-3-1-1.51-1.71-1.51-1.71-3.12-3.94-3.39-4.5-7.05-8.66-10.9-12.8-1.8-2.02-3.41-4.09-5.02-6.26-0.07 4.63-0.13 9.25-0.16 13.9-0.02 1.57-0.04 3.15-0.07 4.72-0.03 2.26-0.05 4.53-0.06 6.79-0.02 0.7-0.03 1.4-0.05 2.13 0 4.29 0.71 6.19 3.34 9.48l-1 4h-12c-0.5-1.48-0.5-1.48-1-3l6-3c0.33-6.67 0.63-13.3 0.88-20 0.08-1.85 0.15-3.71 0.23-5.57 0.09-2.18 0.15-4.36 0.2-6.54 0.04-1.22 0.08-2.44 0.12-3.7-0.68-5.04-3.86-7.79-7.43-11.2z" fill="#717376"/>
<path transform="translate(623 1077)" d="m0 0c4.05-0.12 7.11 0.31 10.8 2.12v2c0.57 0.07 1.15 0.13 1.75 0.19 3.21 1.16 4.28 3.05 6.25 5.81 0.72 1 1.44 1.99 2.18 3 3.52 5.82 3.76 12.8 2.28 19.4-2.78 8.96-7.61 14.6-15.5 19.6-9.44 3.75-17.9 1.72-27-2-4.27-2.51-6.6-4.54-7.94-9.37-0.03-1.3-0.03-1.3-0.06-2.63h-2c-2.84-5.66-1.84-15.3 0.01-21.2 1.18-2.45 2.28-4.63 3.99-6.76 0.99-0.32 1.98-0.66 3-1 0.31-0.66 0.61-1.31 0.93-2 0.35-0.66 0.7-1.31 1.07-2 1.87-0.56 1.87-0.56 4-1 0.6-0.48 1.21-0.97 1.83-1.48 4.18-2.93 9.47-2.37 14.4-2.64zm-17.2 7.12c-2.81 6.06-3.55 11.2-3.5 17.9 0 0.88 0.01 1.76 0.01 2.67 0.22 8.32 2.2 14.5 8.24 20.4 5.29 3.27 10 4.08 16.2 3.88 3.08-0.54 3.08-0.54 4.25-2.5 0.27-0.78 0.54-1.57 0.82-2.38 0.68-1.09 1.36-2.18 2.06-3.31 4.38-7.69 3.93-19.2 1.94-27.7-1.51-3.1-3.2-6.06-5-9h-2v-2c-3.96-3.54-8.21-3.57-13.3-3.4-4.32 0.64-6.83 2.19-9.72 5.4z" fill="#717376"/>
<path transform="translate(1138,1079)" d="m0 0c4.35 1.47 5.74 4.56 7.69 8.44 0.34 0.65 0.68 1.31 1.02 1.98 3.18 6.2 6.12 12.5 9.06 18.8 2.41 5.15 5.02 10 8.14 14.8 1.09 1.91 1.09 1.91 1.62 4.1 0.23 0.9 0.23 0.9 0.47 1.81 0.99 0.49 0.99 0.49 2 1h-18v-2h3c-0.74-2.09-1.49-4.17-2.25-6.25-0.42-1.16-0.84-2.32-1.27-3.52-1.47-3.22-2.69-5.07-5.48-7.23-3.27 0.2-3.27 0.2-7 1-3.34 0.1-6.66 0.06-10 0-2.67 4.55-3.32 7.74-3 13l4 2v2l2 1c-3.05 0.88-5.83 1.16-9 1.19-1.27 0.02-1.27 0.02-2.56 0.04-2.59-0.24-4.21-0.92-6.44-2.23 0.74-0.66 1.48-1.32 2.25-2 3.22-3.2 4.89-6.91 6.75-11 1.18-2.53 2-4 4-6 0.85-2.31 1.52-4.64 2.22-7 0.78-2 0.78-2 2.78-3 0.35-1.66 0.68-3.33 1-5 0.76-1.85 1.58-3.69 2.44-5.5 1.63-3.47 3.17-6.93 4.56-10.5z" fill="#717376"/>
<path transform="translate(430 1076)" d="m0 0c1.66 0.12 1.66 0.12 3.34 0.24 3.07 0.43 5.41 1.02 8.16 2.45 1.93 4.04 2.21 7.56 2 12-1.71-1.28-3.37-2.62-5-4v-2h-2c-0.47-0.64-0.95-1.28-1.44-1.94-1.47-2.35-1.47-2.35-4.56-3.06-5.83-0.51-12.6-0.42-18 2-1.18 1.69-1.18 1.69-2 4-0.53 1.04-1.05 2.08-1.6 3.16-1.85 4.38-1.88 8.57-1.84 13.3-0.02 0.81-0.04 1.62-0.06 2.45 0.01 5.29 0.98 8.93 3.64 13.5 0.86 1.61 0.86 1.61 0.86 3.61 0.56 0.27 1.11 0.53 1.69 0.81 2.31 1.19 2.31 1.19 4.5 2.75 3.55 1.82 6.1 1.77 10.1 1.69 1.24-0.02 2.49-0.03 3.77-0.05 2.86 0.13 2.86 0.13 3.98-1.2 0.07-2.02 0.08-4.04 0.06-6.07-0.01-1.1-0.02-2.2-0.02-3.34-0.02-0.86-0.03-1.71-0.04-2.59l-6-3 1-3c1.73 0.11 3.46 0.24 5.19 0.37 0.96 0.07 1.92 0.14 2.92 0.21 2.89 0.42 2.89 0.42 7.89 2.42l-1 17c-9.77 4.88-21.9 3.94-32.2 1.04-6.99-2.61-12.3-6.39-15.8-13-1.26-3.74-1.2-7.46-1.25-11.4-0.03-1.28-0.05-2.57-0.08-3.9 0.35-3.97 1.34-6.31 3.33-9.72 0.43-0.85 0.87-1.69 1.31-2.57 3.65-5.27 6.87-7.5 13.1-8.74 1.53-0.25 3.07-0.49 4.62-0.69v-2c3.98-0.99 7.42-1.01 11.5-0.69z" fill="#717376"/>
<path transform="translate(1045,1079)" d="m0 0c1.61 3.21 1.06 6.44 1 10h-2c-0.25-0.78-0.49-1.57-0.75-2.38-1.45-3.03-2.19-3.45-5.25-4.62-0.6-0.34-1.21-0.68-1.83-1.03-5.08-2.27-10.8-1.37-16 0.15-4.46 2.63-7.19 5.18-8.98 10-2.02 8.15-2.5 18.7 1.85 26.1 0.96 1.36 0.96 1.36 1.94 2.75v2c0.54 0.27 1.07 0.54 1.62 0.81 2.38 1.19 2.38 1.19 4.82 2.81 5.43 2.1 10.8 1.61 16.6 1.38 1.32-2.64 1.1-4.68 1.06-7.62-0.01-1.01-0.02-2.01-0.02-3.04-0.02-0.77-0.03-1.55-0.04-2.34l-7-4v-1h17c0.08 3.13 0.14 6.25 0.19 9.38 0.02 0.88 0.05 1.77 0.07 2.69 0.01 0.85 0.02 1.7 0.03 2.58 0.02 0.78 0.03 1.57 0.05 2.38-0.17 0.97-0.17 0.97-0.34 1.97-6.8 4.53-18.1 3.9-25.9 2.47-9.21-2.32-16.5-5.95-21.8-14.2-2.78-7.37-2.98-14.9-0.25-22.3 2.28-4.53 5.02-8.79 9-12 2-0.62 2-0.62 4-1 0.64-0.35 1.28-0.7 1.94-1.06 2.48-1.13 4.36-1.09 7.06-0.94v-2c7.32-2.44 15-1.02 22 2z" fill="#727477"/>
<path transform="translate(763,1078)" d="m0 0c2.97 3.63 5.03 7.62 7.19 11.8 0.39 0.75 0.78 1.5 1.19 2.27 3 5.72 5.87 11.5 8.72 17.3 2.62 5.26 5.51 10.3 8.55 15.3 1.35 2.36 1.35 2.36 2.35 5.36h-15v-3c-0.91-3.95-2.07-7.33-4.12-10.8-1.88-3.19-1.88-3.19-1.88-5.19-0.96 0.08-1.93 0.17-2.92 0.25-1.9 0.16-1.9 0.16-3.83 0.31-1.88 0.16-1.88 0.16-3.8 0.32-2.84 0.1-4.79 0.03-7.45-0.88l-4 6-2-4 2-2c0.71-1.63 1.38-3.28 2-4.94 1.14-3.03 2.18-5.34 4-8.06 0.3-0.9 0.59-1.8 0.9-2.73 1.26-3.75 2.92-7.13 4.72-10.6 0.33-0.64 0.65-1.28 0.99-1.94 0.79-1.56 1.59-3.12 2.39-4.68z" fill="#717377"/>
<path transform="translate(583,921)" d="m0 0c24.2-0.54 24.2-0.54 32.4 7.25 4.95 5.45 4.65 11.7 4.59 18.8-0.57 2.96-1.37 4.34-3 7-0.35 0.59-0.71 1.18-1.07 1.79-2.2 3.42-4.3 5.6-7.74 7.77-1.8 1.1-1.8 1.1-3.19 2.44-0.59 3.21-0.59 3.21 0 6-4.75 1.12-4.75 1.12-7 0-2.1 0.4-2.1 0.4-4 1l-1-4c1.98-0.5 1.98-0.5 4-1v-2l-2-1h3c5.43-10.5 6.37-21.6 3-33-0.97-1.36-1.96-2.7-3-4v-2c-4.86-2.59-9.65-2.19-15-2v-3z" fill="#0150C0"/>
<path transform="translate(554,922)" d="m0 0c2.65-0.03 5.29-0.05 7.94-0.06 0.75-0.01 1.51-0.02 2.28-0.03 1.93-0.01 3.86 0.04 5.78 0.09l1 1c2.33 0.04 4.67 0.04 7 0-2.33 1.21-4.5 2.17-7 3 0.01 1.45 0.01 1.45 0.02 2.92 0.01 3.57 0.03 7.13 0.03 10.7 0.01 1.54 0.02 3.09 0.03 4.63 0.01 2.22 0.01 4.44 0.02 6.65 0 0.7 0.01 1.39 0.01 2.11 0 1.66-0.05 3.33-0.11 4.99l-1 1c0.24 1.91 0.48 3.83 0.74 5.74 0.41 3.55 0.33 7.06 0.24 10.6-0.01 0.76-0.03 1.52-0.05 2.3-0.03 1.59-0.07 3.19-0.12 4.78-0.06 2.44-0.1 4.88-0.14 7.32-0.04 1.56-0.08 3.11-0.12 4.66-0.01 0.73-0.02 1.46-0.03 2.21-0.07 2.05-0.07 2.05-0.52 5.36-1.49 0.99-1.49 0.99-3 2-1.37 1.64-2.71 3.3-4 5-1.01-4.18-1.15-8.22-1.16-12.5-0.01-1.1-0.01-1.1-0.01-2.23-0.01-1.59-0.02-3.19-0.03-4.78-0.01-2.52-0.03-5.05-0.05-7.57-0.06-7.16-0.12-14.3-0.15-21.5-0.02-4.39-0.06-8.78-0.1-13.2-0.02-1.68-0.03-3.35-0.03-5.02 0-2.33-0.03-4.67-0.05-7 0-0.69 0-1.39 0.01-2.1-0.05-2.83-0.12-4.71-1.79-7.05-2.14-1.42-4.11-1.75-6.64-2.09l1-2z" fill="#0048AD"/>
<path transform="translate(480 1077)" d="m0 0c1.12 0.05 1.12 0.05 2.26 0.11 5.37 0.33 5.37 0.33 7.62 2.58 0.12 3.62 0.12 3.62 0 7-3-1-4.72-1.65-6.76-4.13-3.07-2.56-5.34-2.23-9.22-2.11-2.09 0.13-2.09 0.13-4.02 1.24-1.02 4.31-1.11 8.46-1.07 12.9 0.01 1.15 0.02 2.31 0.03 3.49 0.01 0.87 0.02 1.74 0.04 2.64h5v2h6v-2c1.64-0.66 3.3-1.32 5-2 2.12 5.62 2.12 5.62 1 9-1.65-0.66-3.31-1.32-5-2v-2c-1.82 0.11-3.63 0.24-5.44 0.37-1.01 0.07-2.02 0.14-3.06 0.21-0.83 0.14-1.65 0.28-2.5 0.42-1.72 3.42-1.23 7.23-1.26 11-0.02 0.83-0.04 1.66-0.06 2.52 0 0.8-0.01 1.59-0.01 2.41-0.01 0.74-0.02 1.47-0.03 2.22 0.12 0.61 0.23 1.22 0.36 1.85 4.25 2.83 8.01 2.52 13 2 3.68-1.62 4.75-2.63 7-6h2c0.49-0.99 0.49-0.99 1-2-0.12 1.62-0.25 3.25-0.38 4.87-0.07 0.91-0.14 1.81-0.21 2.74-0.41 2.39-0.41 2.39-2.41 4.39-3.08 0.22-3.08 0.22-6.98 0.19-0.69 0-1.37 0-2.08-0.01-2.19-0.01-4.38-0.03-6.57-0.06-1.48-0.01-2.97-0.02-4.45-0.02-3.64-0.03-7.28-0.06-10.9-0.1 0.16-0.57 0.32-1.14 0.48-1.73 0.52-2.29 0.68-4.34 0.74-6.69 0.02-0.86 0.04-1.73 0.07-2.62 0.02-0.92 0.04-1.85 0.06-2.8 0.03-1.44 0.03-1.44 0.07-2.91 0.04-2.03 0.09-4.05 0.13-6.08 0.07-3.1 0.15-6.19 0.23-9.29 0.04-1.97 0.09-3.94 0.13-5.91 0.02-0.92 0.05-1.85 0.07-2.8 0.08-4.2 0.12-8.07-0.98-12.2 7.08-0.89 14-1.07 21.1-0.69z" fill="#75777B"/>
<path transform="translate(512,1077)" d="m0 0c13.4-0.21 13.4-0.21 17 1 2.83 4.12 2.19 9.19 2 14-4.94-3-7.2-7.61-9-13-3.63 0.66-7.26 1.32-11 2-0.79 5.08-0.79 5.08 0 10 3.69 4.08 8.06 7.53 13 10v2h3c3.92 3.85 5.37 8.29 5.56 13.7-0.18 3.39-0.5 5.18-2.06 8.25-5.94 4.9-11 6.73-18.8 6.47-4.17-0.63-7.11-2.24-10.7-4.41v-13c2.5 2.31 2.5 2.31 5 5v3c0.99 0.33 1.98 0.66 3 1 0.54 0.66 1.07 1.32 1.62 2 3.47 2.92 6.97 2.81 11.4 3 1.8-3.83 2.36-6.77 2-11-2.91-7.25-10.6-11.6-17-15.5-2.97-2.19-4.71-4.12-5.45-7.79-0.07-5.47 0.5-9.16 4.02-13.5 1.45-1.21 1.45-1.21 4.26-1.65 0.72 0.15 1.45 0.29 2.19 0.44v-2z" fill="#717376"/>
<path transform="translate(903,1078)" d="m0 0c6.09-0.02 12.2-0.04 18.3-0.05 2.07-0.01 4.15-0.02 6.22-0.03 2.97-0.01 5.94-0.01 8.92-0.02 0.93 0 1.86-0.01 2.82-0.01h2.61c0.76-0.01 1.51-0.01 2.3-0.01 1.87 0.12 1.87 0.12 3.87 1.12 0.05 1.6 0.09 3.21 0.12 4.81 0.03 0.9 0.05 1.79 0.08 2.71-0.2 2.48-0.2 2.48-2.2 5.48-0.49-0.94-0.49-0.94-0.99-1.9-0.44-0.82-0.87-1.63-1.32-2.48-0.43-0.81-0.86-1.62-1.3-2.46-1.36-2.43-1.36-2.43-4.39-4.16-2.05-0.45-2.05-0.45-4.19-0.62-1.26-0.13-2.51-0.25-3.81-0.38-0.1 6.19-0.17 12.4-0.22 18.6-0.02 2.11-0.05 4.21-0.08 6.32-0.05 3.03-0.07 6.06-0.09 9.08-0.02 0.95-0.04 1.89-0.06 2.86-0.07 5.19-0.07 5.19 2.29 9.66 1.71 1.19 3.43 2.35 5.16 3.5h-23v-2c2.48-0.49 2.48-0.49 5-1 0.14-5.46 0.29-10.9 0.43-16.4 0.05-1.86 0.09-3.71 0.14-5.57 0.07-2.67 0.14-5.35 0.21-8.02 0.02-0.83 0.04-1.66 0.07-2.51 0.04-1.52 0.07-3.04 0.1-4.56 0.04-1.63 0.11-3.26 0.19-4.89 0.07-2.29 0.07-2.29-2.14-4.06-3.37-0.58-3.37-0.58-7 0-2.63 2.17-4.47 3.95-6 7l-2-1v-9z" fill="#737578"/>
<path transform="translate(541,1078)" d="m0 0h45v11c-5.03-2.01-5.96-2.91-9-7-2.71-1.35-5.01-1.07-8-1-0.61 11.2-1.11 22.3-1.25 33.5-0.02 0.86-0.04 1.73-0.06 2.62-0.01 0.82-0.01 1.63-0.02 2.47-0.01 0.71-0.02 1.42-0.03 2.15 0.36 3.02 0.36 3.02 3.36 8.26h-18c1.98-0.49 1.98-0.49 4-1 0.65-16 1.17-32 1-48h-11l-2 5-3 2-2-1 1-9z" fill="#747679"/>
<path transform="translate(981 1077)" d="m0 0c0.7 0.03 1.41 0.07 2.13 0.11 1.71 0.11 3.42 0.33 5.12 0.58 1.61 3.21 1.06 6.43 1 10-2.89-1.18-4.11-2.14-6.13-4.63-4.12-3.41-7.71-2.82-12.9-2.37-0.03 3.08-0.05 6.16-0.06 9.25-0.01 0.87-0.02 1.74-0.03 2.64 0 0.85 0 1.69-0.01 2.56 0 0.78-0.01 1.55-0.01 2.35 0.11 2.19 0.5 4.09 1.11 6.2h-2c0.14 3.64 0.29 7.29 0.44 10.9 0.04 1.05 0.08 2.09 0.12 3.16 0.06 1.48 0.06 1.48 0.12 3 0.04 0.91 0.08 1.83 0.11 2.77-0.02 2.12-0.02 2.12 1.21 3.14 7.25 0.84 7.25 0.84 14.1-1.12 1.76-1.51 1.76-1.51 3.94-3.88h2l1-3c-0.87 7.62-0.87 7.62-2 11-21.4 1.68-21.4 1.68-31 0l-1-2h2c-0.03-0.88-0.06-1.75-0.09-2.65-1.1-32.2-1.1-32.2-0.91-47.4 7.29-0.81 14.4-1.11 21.8-0.69z" fill="#707376"/>
<path transform="translate(727 977)" d="m0 0h3.3c1.69 0 1.69 0 3.42 0.01 1.13-0.01 2.25-0.01 3.42-0.01h3.3 3c2.69 0.13 5.15 0.53 7.78 1.13-0.65 0.52-1.31 1.05-1.98 1.58-2.68 3.21-2.48 5.02-2.41 9.16 0.01 1.29 0.02 2.59 0.04 3.92 0.03 1.37 0.06 2.73 0.1 4.09 0.02 1.38 0.04 2.76 0.05 4.14 0.05 3.37 0.12 6.74 0.2 10.1-1.57 0.52-3.14 1.02-4.72 1.51-0.87 0.29-1.75 0.57-2.65 0.85-3.92 0.96-6.72 0.57-10.6-0.36l-1-2c-0.99 0.5-0.99 0.5-2 1 1.87-4.75 1.87-4.75 3-7 0.26-3.45 0.23-6.91 0.25-10.4 0.02-0.96 0.04-1.92 0.06-2.91 0.01-0.92 0.01-1.85 0.02-2.8 0.01-0.85 0.02-1.7 0.03-2.57-0.44-2.88-1.37-4.24-3.36-6.35-2.5-0.69-2.5-0.69-5.19-0.75-1.35-0.08-1.35-0.08-2.73-0.17-0.69-0.02-1.37-0.05-2.08-0.08v-1c3.65-0.84 7.03-1.13 10.8-1.13z" fill="#0151C1"/>
<path transform="translate(902,935)" d="m0 0h2c0.01 1.24 0.01 1.24 0.02 2.51 0.08 7.81 0.17 15.6 0.27 23.4 0.05 4.01 0.09 8.03 0.13 12 0.04 3.87 0.09 7.75 0.14 11.6 0.02 1.48 0.03 2.96 0.04 4.43 0.02 2.08 0.05 4.15 0.08 6.22 0.01 1.18 0.03 2.36 0.04 3.58 0.34 3.83 1.31 6.71 3.47 9.89 2.75 1.9 5.54 1.94 8.81 2.25l-2 4c-3.62 0.03-7.25 0.05-10.9 0.06-1.01 0.01-2.02 0.02-3.07 0.03-6.41 0.02-12.7-0.31-19-1.09 0.78-0.74 1.57-1.49 2.38-2.25 2.19-2.29 3.45-3.87 4.62-6.75v2h2 1c1.95-2.36 3.02-4.06 4-7-0.16-0.64-0.33-1.28-0.5-1.94-0.5-2.06-0.5-2.06 0-3.94 0.67-2.19 0.67-2.19-0.02-4.7-0.6-4.26-0.19-8.05 0.33-12.3 0.09-0.76 0.17-1.52 0.25-2.31 0.59-5.07 1.47-9.92 2.94-14.8l2-1c-0.01-0.64-0.02-1.29-0.04-1.95-0.07-7.4 0.38-14.7 1.04-22z" fill="#014FC0"/>
<path transform="translate(1172,1078)" d="m0 0c2.6-0.05 5.21-0.09 7.81-0.12 0.74-0.02 1.48-0.04 2.24-0.06 3.86-0.03 5.66-0.01 8.95 2.18l-4 2c-0.03 6.23-0.04 12.5-0.05 18.7l-0.03 6.36c-0.01 3.04-0.01 6.09-0.02 9.13 0 0.95-0.01 1.9-0.01 2.88v2.67c-0.01 1.17-0.01 1.17-0.01 2.36 0 2 0 2 1.12 3.91 7.7 0.64 7.7 0.64 14.9-1.56 1.05-1.21 1.05-1.21 2.12-2.44 0.8-0.9 0.8-0.9 1.62-1.82 1.49-1.7 2.95-3.43 4.38-5.18 1.3 2.6 0.93 4.19 0.62 7.06-0.13 1.35-0.13 1.35-0.27 2.73-0.35 2.21-0.35 2.21-1.35 3.21-3.42 0.39-6.87 0.47-10.3 0.62-0.95 0.06-1.89 0.11-2.86 0.16-7.02 0.33-13.8-0.05-20.8-0.78 0.01-0.59 0.02-1.18 0.03-1.8 0.09-6.16 0.15-12.3 0.19-18.5 0.02-2.3 0.05-4.6 0.08-6.9 0.05-3.31 0.07-6.61 0.09-9.92 0.03-1.54 0.03-1.54 0.06-3.12 0.11-5.63 0.11-5.63-2.47-10.4-0.66-0.44-1.31-0.87-1.98-1.32z" fill="#707276"/>
<path transform="translate(402,947)" d="m0 0h1c0.34 1.92 0.67 3.83 1 5.75 0.19 1.07 0.37 2.13 0.56 3.23 0.44 3.02 0.44 3.02 0.44 7.02h2l1-2c4.03 4.03 2.13 15.9 2.14 21.3 0 1.52-0.01 3.04-0.01 4.56 0 2.29 0 4.57 0.01 6.85 0 7.21-0.1 14.4-0.46 21.6-0.06 1.19-0.11 2.37-0.17 3.59-0.54 3.24-1.21 4.75-3.51 7.05h-2c0.02 1.05 0.04 2.1 0.06 3.19-0.05 3.14-0.33 5.78-1.06 8.81h-1c-1.09-9.27-1.15-18.5-1.13-27.8 0-1.6 0-3.21-0.01-4.81 0-3.34 0-6.68 0.01-10 0.01-4.27 0-8.54 0-12.8-0.01-3.31-0.01-6.61 0-9.91 0-1.58 0-3.15-0.01-4.73 0-2.2 0.01-4.4 0.01-6.6v-3.78c0.13-3.58 0.56-7.01 1.13-10.5z" fill="#0048AD"/>
<path transform="translate(821 1078)" d="m0 0c1.72 0 1.72 0 3.48 0.01 1.14 0 2.28-0.01 3.46-0.01 2.89 0.12 5.48 0.47 8.29 1.13-0.63 0.27-1.27 0.54-1.93 0.82-2.4 1.07-2.4 1.07-3.07 4.18-0.07 3-0.09 5.98-0.06 8.98 0.01 0.87 0.01 1.75 0.01 2.66 0.02 2.81 0.03 5.62 0.05 8.43 0.03 3.69 0.05 7.39 0.07 11.1 0.01 0.86 0.01 1.71 0.02 2.59 0.03 6.03 0.03 6.03-1.09 8.25 0.99 0.33 1.98 0.66 3 1v2c1.49 0.5 1.49 0.5 3 1-9.4 0.5-9.4 0.5-19 1v-3c1.49-0.49 1.49-0.49 3-1 0.03-6.21 0.05-12.4 0.06-18.6 0-2.11 0.01-4.23 0.02-6.34 0.01-3.04 0.02-6.07 0.02-9.11 0.01-0.95 0.01-1.89 0.02-2.87v-2.67-2.35c-0.04-2.23-0.04-2.23-1.12-5.03l-2-1c1-1 1-1 3.77-1.13z" fill="#75777A"/>
<path transform="translate(1073,941)" d="m0 0h1c0.25 0.99 0.49 1.97 0.75 2.99 1.23 4.34 3.21 8.16 5.31 12.1 4.35 8.25 4.35 8.25 4.94 12.9h2l2 7h-30c-1-2-1-2-0.06-5.12 0.35-0.95 0.7-1.9 1.06-2.88h2c0.11-0.68 0.21-1.37 0.32-2.07 0.8-3.46 2.08-6.49 3.49-9.74 0.27-0.62 0.54-1.23 0.81-1.86 1.98-4.53 4.1-8.95 6.38-13.3z" fill="#F8FDFD"/>
<path transform="translate(676,1078)" d="m0 0h9v2c0.6 0.06 1.2 0.12 1.81 0.19 2.19 0.81 2.19 0.81 4 2.75 1.74 4.47 0.94 8.4 0.19 13.1-0.99 0.33-1.98 0.66-3 1-1.11 1.88-1.11 1.88-2 4l-2 3c7.07 9.92 13.8 19.2 24 26-14.9 1.03-14.9 1.03-19.4-2.69-2.37-2.56-3.51-4.73-3.62-8.31h-2v-2h-2c-0.81-1.46-1.63-2.92-2.44-4.38-0.68-1.21-0.68-1.21-1.37-2.46-0.76-1.37-1.49-2.76-2.19-4.16l1-2-2-1c0.97-0.27 1.94-0.54 2.94-0.81 1.01-0.39 2.02-0.79 3.06-1.19 1.12-3.35 1.17-5.98 1.19-9.5 0.02-1.72 0.02-1.72 0.04-3.47 0.01-3.21 0.01-3.21-2.23-6.03-2.06-0.72-2.06-0.72-4-1l1-3z" fill="#737578"/>
<path transform="translate(711,1078)" d="m0 0c2.79-0.05 5.58-0.09 8.38-0.12 0.79-0.02 1.58-0.04 2.4-0.06 2.07-0.01 4.15 0.08 6.22 0.18l2 2-4 1c-0.02 4.93-0.04 9.85-0.05 14.8l-0.03 5.01c-0.06 11.4-0.06 11.4 0.33 22.8 0.05 0.83 0.1 1.66 0.14 2.52 0.2 0.64 0.4 1.28 0.61 1.94l4 2h-20l4-3c3.06-3.06 1.32-14.8 1.35-19.2 0.02-2.05 0.04-4.09 0.08-6.14 0.06-2.94 0.08-5.89 0.09-8.83 0.03-0.91 0.05-1.82 0.07-2.76-0.01-5.68-0.01-5.68-3.12-10.2-0.82-0.62-1.63-1.24-2.47-1.88z" fill="#727477"/>
<path transform="translate(1061,1080)" d="m0 0h13l-1 3c-0.09 1.43-0.13 2.87-0.13 4.31 0 0.83-0.01 1.66-0.01 2.51 0.01 0.87 0.01 1.73 0.02 2.62-0.01 0.86-0.01 1.72-0.02 2.6 0.01 1.25 0.01 1.25 0.01 2.52v2.29c0.06 2.14 0.06 2.14 0.65 4.13 0.56 2.37 0.5 4.36 0.36 6.79-0.05 0.89-0.1 1.77-0.15 2.69s-0.11 1.84-0.17 2.79c-0.05 0.94-0.1 1.87-0.16 2.84-0.13 2.3-0.26 4.61-0.4 6.91h2l2 5c-0.5-0.16-1-0.33-1.52-0.5-3.41-0.69-6.77-0.61-10.2-0.56-0.7 0-1.39 0.01-2.11 0.01-1.72 0.01-3.43 0.03-5.14 0.05l1-2c1.98-0.49 1.98-0.49 4-1l1-45c-0.99-0.33-1.98-0.66-3-1v-1z" fill="#717376"/>
<path transform="translate(522,947)" d="m0 0 3 2v2h4c0.24 1.91 0.48 3.82 0.71 5.73 0.26 2.03 0.55 4.06 0.85 6.08 0.65 5.05 0.52 10.1 0.44 15.2l1-2 4 2c-0.75 7.62-0.75 7.62-3 11-3.93 0.51-6.09 0.69-9.31-1.75-2.64-3.52-3.92-6.21-4.07-10.6-0.03-0.83-0.07-1.67-0.1-2.53-0.03-0.87-0.05-1.75-0.08-2.65-0.07-1.8-0.15-3.6-0.22-5.4-0.04-0.86-0.07-1.73-0.11-2.62-0.21-4.49-0.63-8.95-1.11-13.4h2v-2l2-1z" fill="#0048AD"/>
<path transform="translate(610,1078)" d="m0 0 3 2c-0.93 0.49-1.86 0.99-2.81 1.5-3.87 2.61-5.07 6.1-6.19 10.5-1.21 9.09-1.63 20 3.29 28 2.63 3.05 5.61 5.41 8.92 7.7 0.59 0.42 1.18 0.85 1.79 1.28v1c-7.1-0.33-13.2-1.57-18.6-6.46-2.78-3.08-3.39-4.29-3.39-8.54h-2c-2.83-5.67-1.83-15.3 0.01-21.2 1.19-2.45 2.28-4.63 3.99-6.75 0.99-0.33 1.98-0.66 3-1 0.31-0.66 0.62-1.32 0.94-2 0.35-0.66 0.7-1.32 1.06-2 1.94-0.56 1.94-0.56 4-1 1.73-1.48 1.73-1.48 3-3z" fill="#717376"/>
<path transform="translate(1063 975)" d="m0 0c1.3 0.05 2.6 0.1 3.94 0.15 1.37 0.05 2.74 0.11 4.11 0.17 1.38 0.05 2.77 0.1 4.15 0.15 3.39 0.13 6.78 0.27 10.2 0.41v2h-3v2h-27l-1 5c-0.62 1.54-1.29 3.06-2 4.56-2.73 5.8-4.21 11.4-2.31 17.8 1.79 2.3 3.57 2.82 6.31 3.69 2.93 0.97 4.62 2.11 7 4-19.3 0.19-19.3 0.19-29-1-0.49-1.49-0.49-1.49-1-3 0.81-0.25 1.61-0.5 2.44-0.75 0.85-0.41 1.69-0.83 2.56-1.25 0.37-1.33 0.69-2.66 1-4 1.01-2.12 2.05-4.23 3.13-6.31 2.01-3.94 3.98-7.88 5.79-11.9 0.31-0.68 0.61-1.37 0.93-2.07 0.59-1.33 1.18-2.66 1.76-4 0.72-1.61 1.55-3.16 2.39-4.71 3.48-1.16 5.98-1.02 9.64-0.88z" fill="#004ABE"/>
<path transform="translate(986,922)" d="m0 0h24c-1.15 3.44-1.96 4.17-5 6h-4c0.1 0.63 0.19 1.25 0.29 1.9 0.11 0.82 0.22 1.63 0.33 2.48 0.12 0.81 0.24 1.62 0.36 2.46 0 0.71 0.01 1.42 0.02 2.16l-3 3c0.5 1.15 0.99 2.31 1.5 3.5 3.24 9.7 2.41 23.6 0.5 33.5-0.99 0.5-0.99 0.5-2 1l-2 2v-12c-0.16-2.19-0.33-4.38-0.5-6.56-0.09-1.2-0.19-2.4-0.28-3.63-0.07-0.93-0.15-1.86-0.22-2.81l-1 6h-1c-0.03-0.98-0.05-1.97-0.08-2.98-0.09-3.65-0.19-7.3-0.29-11-0.05-1.58-0.09-3.16-0.13-4.74-0.06-2.28-0.12-4.55-0.18-6.82-0.02-0.7-0.04-1.41-0.05-2.14-0.1-3.04-0.3-5.47-1.27-8.37-2.97-0.5-2.97-0.5-6-1v-2z" fill="#0049AE"/>
<path transform="translate(1051 1207)" d="m0 0c3.44 0.56 3.44 0.56 5.81 2.12 2.51 3.77 3.03 7.32 2.19 11.8-2.11 2.27-4.39 3-7.39 3.63-4 0.1-6.05-1.52-9.17-3.95-0.5-1.98-0.5-1.98-1-4h-58v-1c12.2-0.33 24.4-0.66 37-1v-1c0.96 0 0.96 0 1.94-0.01 2.91-0.03 5.83-0.1 8.74-0.17 1.01-0.01 2.02-0.02 3.06-0.02 6.15-0.11 6.15-0.11 11.2-3.31 2.02-2.49 2.02-2.49 5.58-3.05z" fill="#6F7174"/>
<path transform="translate(1147,917)" d="m0 0h2v2c2.68 0.89 4.34 1.15 7.1 1.21 1.24 0.03 1.24 0.03 2.49 0.06 1.32 0.02 1.32 0.02 2.67 0.05 1.36 0.03 1.36 0.03 2.75 0.06 2.89 0.06 5.78 0.12 8.68 0.18 1.96 0.05 3.92 0.09 5.88 0.13 4.81 0.11 9.62 0.21 14.4 0.31l2 4c-1.28-0.02-2.56-0.05-3.88-0.07-22.3-0.63-22.3-0.63-41.5 9.37-2.5 2.64-3.99 5.46-5.61 8.7-2.64-7.93 1.22-18.1 3-26z" fill="#0351C1"/>
<path transform="translate(519,981)" d="m0 0c3.76 1.25 4.15 2.63 6 6l1 1 2-2v3h5l-3 5c-0.41 0.8-0.83 1.61-1.25 2.44-3.51 5.14-7.91 8.45-13.8 10.6-0.47 0.5-0.95 0.99-1.44 1.5-2.21 2.13-4.65 2.66-7.56 3.5 0.75-2.88 0.75-2.88 2-6 2.06-1.12 2.06-1.12 4-2 0.37-1.32 0.7-2.66 1-4 0.62-1.39 1.27-2.76 1.94-4.12 2.21-4.84 3.23-9.65 4.06-14.9z" fill="#0251C1"/>
<path transform="translate(704,920)" d="m0 0c4 0.07 8 0.16 12 0.26 1.35 0.04 2.71 0.06 4.07 0.09 14.9 0.25 14.9 0.25 19.9 3.65 2.36 4.5 2.41 9.38 2.62 14.4 0.06 1.1 0.06 1.1 0.12 2.23 0.1 1.79 0.18 3.59 0.26 5.39h-2v-2c-0.99-0.33-1.98-0.66-3-1-1.36-2.07-1.36-2.07-2.75-4.69-4.05-7.01-8.81-11.1-16.2-14.3-2.66-0.5-5.2-0.9-7.88-1.19-1.03-0.12-1.03-0.12-2.08-0.25-1.68-0.19-3.36-0.38-5.04-0.56v-2z" fill="#0252C1"/>
<path transform="translate(680,1082)" d="m0 0c2.37 3.56 2.27 5.22 2.25 9.44 0.01 1.13 0.01 2.26 0.02 3.43-0.26 2.99-0.62 4.67-2.27 7.13-2.21 1.11-3.55 1.2-6 1.25-0.7 0.03-1.4 0.05-2.12 0.08-0.62-0.11-1.24-0.22-1.88-0.33-2.12-3.17-2.23-3.67-1.98-7.23 0.06-0.8 0.11-1.61 0.16-2.43 0.06-0.84 0.13-1.67 0.2-2.53 0.05-0.84 0.11-1.69 0.17-2.56 0.14-2.08 0.29-4.17 0.45-6.25 4.48-2.03 6.46-2.12 11 0z" fill="#F8FCFC"/>
<path transform="translate(1082,1081)" d="m0 0c2.81 2.28 3.88 3.99 4.32 7.6 0.1 4.9 0 8.98-2.32 13.4-3.47 1.16-6.36 1.07-10 1-1.56-3.13-1.14-6.45-1.12-9.88-0.01-0.72-0.01-1.44-0.02-2.18 0.02-7.37 0.02-7.37 1.14-9.94 3.4-1.13 4.65-1.14 8 0z" fill="#FAFEFE"/>
<path transform="translate(1032,1109)" d="m0 0h17c0.08 3.13 0.14 6.25 0.19 9.38 0.02 0.88 0.05 1.77 0.07 2.69 0.01 0.85 0.02 1.7 0.03 2.58 0.02 0.78 0.03 1.57 0.05 2.38-0.11 0.65-0.22 1.3-0.34 1.97-6.49 4.32-15.5 3.13-23 3v-2l-4-1c3.42-1.14 6.09-1.1 9.69-1.06 1.77 0.01 1.77 0.01 3.57 0.02 0.91 0.02 1.81 0.03 2.74 0.04 1.32-2.64 1.1-4.68 1.06-7.62-0.01-1.01-0.02-2.01-0.02-3.04-0.02-0.77-0.03-1.55-0.04-2.34-3.46-1.98-3.46-1.98-7-4v-1z" fill="#737578"/>
<path transform="translate(429,1108)" d="m0 0c1.9 0.11 3.79 0.24 5.69 0.38 1.05 0.06 2.11 0.13 3.2 0.21 3.11 0.41 3.11 0.41 8.11 2.41l-1 17c-7.16 3.58-14.2 3.11-22 3v-2h-5v-1c1.14-0.06 2.29-0.12 3.46-0.18 1.5-0.09 2.99-0.17 4.48-0.26 0.75-0.04 1.51-0.08 2.28-0.12 3.7 0.12 3.7 0.12 6.78-1.44 0.07-2.02 0.08-4.04 0.06-6.06-0.01-1.11-0.02-2.21-0.02-3.35-0.02-0.85-0.03-1.71-0.04-2.59l-6-3v-3z" fill="#787A7D"/>
<path transform="translate(381 1033)" d="m0 0c2.98 0.15 4.19 0.38 6.32 2.51 2.09 3.24 3.3 5.39 3.3 9.3l8 2c-0.32-0.99-0.66-1.98-1-3l4 1v2c-6.75 3.6-13.2 4.18-20.7 2.35-2.42-0.9-4.3-1.75-6.33-3.35-1.42-3.93-1.3-5.96-0.12-9.93 2.4-2.34 3.25-2.57 6.5-2.88z" fill="#0653C2"/>
<path transform="translate(660,952)" d="m0 0c2.25 2.69 3.88 4.65 5 8l-3 3h2c1.58 6.39 2.2 11.5 1 18l-4 1v2l2 1-4 2c-3.37-11.7-4.17-22.1-1-34l2-1z" fill="#0049AD"/>
<path transform="translate(773,922)" d="m0 0c2.1-0.03 4.21-0.05 6.31-0.06 1.17-0.01 2.35-0.03 3.55-0.04 3.14 0.1 3.14 0.1 6.14 1.1v2l4 1-10 4c-0.05 1.18-0.1 2.36-0.15 3.58-0.07 1.56-0.15 3.11-0.23 4.67-0.04 1.17-0.04 1.17-0.09 2.36-0.36 7.11-0.36 7.11-2.53 10.4h-4c-0.03-0.68-0.05-1.36-0.08-2.06-0.11-3.09-0.23-6.17-0.36-9.25-0.04-1.07-0.08-2.15-0.12-3.25-0.04-1.03-0.08-2.06-0.12-3.12-0.06-1.42-0.06-1.42-0.11-2.87-0.12-2.59-0.12-2.59-1.21-5.45l2-1-3-2z" fill="#0049AD"/>
<path transform="translate(830,993)" d="m0 0h1l-1 21c-6.47 0.72-11.3 1-17.6 0.06-0.73-0.1-1.45-0.2-2.19-0.3-1.75-0.24-3.5-0.5-5.25-0.76 0.5-1.49 0.5-1.49 1-3 2.77-1.03 2.77-1.03 6.25-1.94 5.53-1.44 9.67-3.09 13-7.91 0.3-0.59 0.59-1.17 0.9-1.77 1.81-3.38 1.81-3.38 3.81-5.38z" fill="#0250C0"/>
<path transform="translate(441,958)" d="m0 0c1.49 0.99 1.49 0.99 3 2l1-2 4 1c1.56 5.68 2.3 10.1 1 16-0.27 1.22-0.54 2.43-0.81 3.69-1.23 3.43-2.42 5.01-5.19 7.31v-8h-2v-5l-2 4c-0.03-2.98-0.05-5.96-0.06-8.94-0.01-0.85-0.02-1.7-0.03-2.57 0-0.81 0-1.62-0.01-2.45 0-0.75-0.01-1.5-0.01-2.27 0.11-1.77 0.11-1.77 1.11-2.77z" fill="#0048AD"/>
<path transform="translate(563,929)" d="m0 0h1c0.98 8.64 1.15 17.2 1.13 25.9 0 1.41 0 2.81 0.01 4.22 0 2.93 0 5.85-0.01 8.78-0.01 3.74 0 7.48 0 11.2 0.01 2.89 0.01 5.79 0 8.68 0 1.38 0 2.76 0.01 4.15 0 1.92-0.01 3.85-0.01 5.77v3.31c-0.12 2.77-0.5 5.27-1.13 7.96h-1c-0.97-4.06-1.13-7.85-1.13-12v-2.08c-0.01-2.26-0.01-4.52 0-6.78 0-1.57 0-3.15-0.01-4.72 0-3.3 0-6.6 0.01-9.89 0.01-4.22 0-8.45 0-12.7-0.01-3.25-0.01-6.5 0-9.75 0-1.56 0-3.11-0.01-4.67 0-2.18 0.01-4.35 0.01-6.53v-3.75c0.11-2.58 0.36-4.69 1.13-7.14z" fill="#0041BA"/>
<path transform="translate(986,922)" d="m0 0h24c-1.15 3.44-1.96 4.17-5 6h-4c0.1 0.63 0.19 1.25 0.29 1.9 0.11 0.82 0.22 1.63 0.33 2.48 0.12 0.81 0.24 1.62 0.36 2.46 0 0.71 0.01 1.42 0.02 2.16-2 2-2 2-5 4-0.25 3.58-0.25 3.58 0 7l-2 1c0.02-0.6 0.03-1.19 0.05-1.8 0.06-2.69 0.1-5.38 0.14-8.08 0.02-0.93 0.05-1.87 0.07-2.83 0.01-0.9 0.02-1.8 0.03-2.72 0.02-0.83 0.03-1.65 0.05-2.51-0.11-0.68-0.22-1.36-0.34-2.06l-3-2v-2c-2.97-0.5-2.97-0.5-6-1v-2z" fill="#0049B2"/>
<path transform="translate(818,957)" d="m0 0h3v24l-1-4c-0.99-0.33-1.98-0.66-3-1-1.14-1.45-1.14-1.45-2.31-2.94-4.06-5.06-9.52-5.32-15.7-6.06v-3c1.05-0.13 2.1-0.27 3.18-0.4 1.37-0.18 2.75-0.36 4.13-0.54 0.69-0.08 1.38-0.17 2.09-0.26 3-0.39 5.72-0.84 8.6-1.8 0.73-2.02 0.73-2.02 1-4z" fill="#1860C8"/>
<path transform="translate(1019,901)" d="m0 0-1 3c-2.64 0.96-5.17 1.73-7.88 2.44-1.54 0.42-3.09 0.85-4.64 1.29-0.76 0.21-1.52 0.42-2.31 0.64-4.47 1.3-8.82 2.95-13.2 4.63 1.17-3.52 2.28-4.49 5-7 0.92-0.86 0.92-0.86 1.87-1.74 7.53-6.85 13.1-9.27 22.1-3.26z" fill="#1A62C9"/>
<path transform="translate(1010,928)" d="m0 0h3c0.03 6.51 0.04 13 0.05 19.5 0.01 2.2 0.02 4.41 0.03 6.61 0.05 13.3-0.14 26.6-1.08 39.9h-1c-0.91-14.8-1.12-29.5-1.06-44.2 0-2.12 0.01-4.25 0.01-6.37 0.01-5.13 0.03-10.3 0.05-15.4z" fill="#E1E7EC"/>
<path transform="translate(1046 1e3)" d="m0 0h1c0.21 1.07 0.41 2.14 0.62 3.25 1.66 4.52 3.18 5.56 7.38 7.75 1.33 0.35 2.66 0.69 4 1 1.35 0.98 2.69 1.97 4 3-19.3 0.19-19.3 0.19-29-1l-1-3c0.8-0.25 1.61-0.5 2.44-0.75 2.73-0.97 2.73-0.97 3.37-3.37 0.06-0.62 0.13-1.24 0.19-1.88l2 1-1 2c3.49-2.21 4.73-4.09 6-8z" fill="#286BCD"/>
<path transform="translate(793,628)" d="m0 0v85l-2-1c0-1.15 0-1.15 0.01-2.32 0.02-7.25 0.03-14.5 0.04-21.8 0.01-3.73 0.01-7.46 0.03-11.2 0.01-3.61 0.01-7.21 0.01-10.8 0.01-1.37 0.01-2.73 0.02-4.1 0.03-8-0.2-15.9-1.11-23.8h-3l1-5h-2v-2c2.56-2.3 3.48-3 7-3z" fill="#0044BC"/>
<path transform="translate(759,1092)" d="m0 0c5.53 4.33 6.55 9.29 8 16-3.15 1.05-5.39 1.1-8.69 1.06-0.99-0.01-1.99-0.02-3.01-0.02-1.14-0.02-1.14-0.02-2.3-0.04-1-3-1-3-0.07-5.34 0.45-0.86 0.91-1.71 1.38-2.6 0.45-0.85 0.9-1.71 1.37-2.59 0.43-0.81 0.87-1.63 1.32-2.47 0.67-1.33 1.34-2.66 2-4z" fill="#F7FBFC"/>
<path transform="translate(850,1088)" d="m0 0h1c0.04 1.04 0.09 2.08 0.14 3.15 0.17 3.86 0.36 7.72 0.55 11.6 0.08 1.67 0.16 3.34 0.23 5.01 0.1 2.41 0.22 4.81 0.35 7.21 0.03 0.75 0.06 1.49 0.09 2.26 0.24 4.32 0.99 6.46 3.64 9.79l-1 4h-12c-0.5-1.48-0.5-1.48-1-3l6-3 2-37z" fill="#76787B"/>
<path transform="translate(817,922)" d="m0 0c5.62-0.25 5.62-0.25 9 2 1.27 4.04 1.1 8.11 1.06 12.3-0.01 1.26-0.02 2.51-0.02 3.8-0.02 0.96-0.03 1.91-0.04 2.89-2.34-2.26-4.16-4.25-5.94-7-2.08-3.03-4.12-4.83-7.06-7l-2-2c1.98-0.66 3.96-1.32 6-2l-1-3z" fill="#0855C3"/>
<path transform="translate(1135,1093)" d="m0 0h2c3.06 5.19 5.68 10.1 7 16-5.53 0.19-9.76-0.25-15-2 0.81-2.15 1.62-4.29 2.44-6.44 0.45-1.19 0.9-2.39 1.37-3.62 1.19-2.94 1.19-2.94 2.19-3.94z" fill="#F8FDFD"/>
<path transform="translate(889,934)" d="m0 0c2 2 2 2 2.24 4.94 0 1.25-0.01 2.51-0.01 3.8v2.1c0 2.3-0.02 4.59-0.03 6.89-0.01 1.59-0.01 3.17-0.01 4.76-0.01 4.19-0.03 8.37-0.05 12.6-0.02 4.27-0.03 8.54-0.04 12.8-0.02 8.38-0.06 16.8-0.1 25.1h-2c-1.23-2.46-1.13-4.06-1.13-6.81 0-1.04-0.01-2.07-0.01-3.14 0.01-1.15 0.01-2.3 0.02-3.49v-3.62c0.08-18.6 0.63-37.3 1.12-55.9z" fill="#0042B9"/>
<path transform="translate(868 714)" d="m0 0c1.3 0.05 2.6 0.1 3.95 0.14 3.14 0.12 6.28 0.24 9.43 0.36v1c-18.2 0.92-36.3 1.13-54.5 1.07-3.45-0.01-6.9-0.02-10.4-0.02-6.7-0.01-13.4-0.03-20.1-0.05-0.34-0.66-0.66-1.32-1-2 5.22-0.15 10.4-0.29 15.7-0.43 1.77-0.04 3.54-0.09 5.3-0.14 17.2-0.48 34.4-0.6 51.6 0.07z" fill="#0041BC"/>
<path transform="translate(949,951)" d="m0 0c3.02 1.71 3.94 2.85 5.25 6.12 0.85 4.38 0.93 8.44 0.75 12.9l2 1c0.17 4.35 0.11 7.2-2 11l1 2h-2v2h-2c-0.92-3.17-1.18-6.1-1.28-9.39-0.04-1.04-0.08-2.08-0.11-3.15-0.04-1.08-0.07-2.16-0.11-3.27-0.31-9.64-0.31-9.64-1.5-19.2z" fill="#0047B0"/>
<path transform="translate(798 922)" d="m0 0c1.12 0 2.24 0.01 3.39 0.01 1.17 0.01 2.33 0.02 3.54 0.03 1.17 0 2.35 0 3.57 0.01 2.91 0.01 5.82 0.03 8.74 0.05v2l4 1c-5.99 2.66-12 2.22-18.4 2.12-1.11-0.01-2.23-0.02-3.38-0.02-2.75-0.03-5.5-0.06-8.24-0.1l-2-4c3.18-1.06 5.42-1.12 8.76-1.1z" fill="#0247BE"/>
<path transform="translate(936 925)" d="m0 0c0.6 0.64 1.2 1.28 1.81 1.94l-1 1c2.48 0.99 2.48 0.99 5 2v2c-3.51 0.4-4.72 0.2-7.62-1.94-0.79-0.68-1.57-1.36-2.38-2.06-3.85-1.29-7.6-1.28-11.6-1.44-6.34-0.29-12.2-0.86-18.4-2.56v-1c9.4-2.25 25.9-3.31 34.2 2.06z" fill="#0041BB"/>
<path transform="translate(727,921)" d="m0 0c1.6 0.11 3.21 0.24 4.81 0.38 0.9 0.06 1.79 0.13 2.71 0.21 2.48 0.41 2.48 0.41 5.48 2.41 2.65 5.3 1.68 8.59 0 14-5.32-2.96-6.74-5.19-9-11l-3-2c-0.69-2.12-0.69-2.12-1-4z" fill="#1C64CA"/>
<path transform="translate(1052,981)" d="m0 0c1.11 1.72 1.11 1.72 2 4-0.64 2.22-0.64 2.22-1.81 4.5-2.3 4.59-3.33 8.1-3.25 13.2 0.01 1.2 0.01 1.2 0.02 2.42 0.02 0.61 0.03 1.21 0.04 1.83-2-1-2-1-3-4-0.08 0.62-0.16 1.24-0.25 1.88-0.75 2.12-0.75 2.12-2.69 3.31-0.68 0.27-1.36 0.53-2.06 0.81l-2 1c0.63-7.5 0.63-7.5 2.32-9.75 2.85-3.81 4.36-8.29 6.16-12.7 2.32-5.48 2.32-5.48 4.52-6.58z" fill="#0450C1"/>
<path transform="translate(501,1114)" d="m0 0c2.5 2.31 2.5 2.31 5 5v3c0.99 0.33 1.98 0.66 3 1 0.52 0.64 1.03 1.28 1.56 1.94 3.67 3.1 7.78 3.38 12.4 4.06-4.48 2.98-8.75 2.61-14 2-2.96-1.06-5.29-2.36-8-4v-13z" fill="#83868A"/>
<path transform="translate(776,75)" d="m0 0h37v2c0.99 0.33 1.98 0.66 3 1h-46v-1c1.98-0.33 3.96-0.66 6-1v-1z" fill="#EAEEF2"/>
<path transform="translate(430 1076)" d="m0 0c1.66 0.12 1.66 0.12 3.34 0.24 3.07 0.43 5.41 1.02 8.16 2.45 1.93 4.04 2.21 7.56 2 12-1.71-1.28-3.37-2.62-5-4v-2h-2c-0.47-0.64-0.95-1.28-1.44-1.94-1.47-2.35-1.47-2.35-4.56-3.06-2.39-0.07-4.79-0.09-7.19-0.07-1.27 0.01-2.54 0.02-3.85 0.03-0.98 0.01-1.95 0.03-2.96 0.04l2-1v-2c3.98-0.99 7.42-1.01 11.5-0.69z" fill="#7B7D81"/>
<path transform="translate(1216,992)" d="m0 0h1c-0.12 2.36-0.24 4.71-0.38 7.06-0.06 1.31-0.13 2.62-0.21 3.98-0.41 3.94-1.21 7.2-2.41 11-2.35-0.6-4.69-1.27-7-2l-1-2 2-1-1-1-3 2c1.51-3.77 1.51-3.77 4-4.94 2.77-1.47 2.96-3.16 4-6.06 0.99-1.34 1.99-2.68 3-4l1-3z" fill="#0550C1"/>
<path transform="translate(414,923)" d="m0 0c1.88 1.56 1.88 1.56 3 3-3 2-3 2-7 2l-1 10c-0.99 0.33-1.98 0.66-3 1l-2-12c-0.99-0.33-1.98-0.66-3-1v-3c4.62-0.83 8.43-1.25 13 0z" fill="#0049AD"/>
<path transform="translate(883,1078)" d="m0 0c1.96-0.05 3.92-0.09 5.88-0.12 1.63-0.04 1.63-0.04 3.3-0.08 2.82 0.2 2.82 0.2 4.82 2.2-0.81 0.36-1.62 0.73-2.46 1.1-2.82 1.68-2.82 1.68-3.2 4.81-0.02 1.16-0.03 2.32-0.05 3.51-0.03 1.25-0.06 2.51-0.08 3.8-0.01 1.31-0.02 2.62-0.02 3.97-0.03 1.33-0.05 2.67-0.08 4-0.06 3.27-0.09 6.54-0.11 9.81-0.99 0.49-0.99 0.49-2 1l-1-8h2c-0.14-11.6-0.14-11.6-5-22v-2h-2v-2z" fill="#76787C"/>
<path transform="translate(1045,1079)" d="m0 0c1.61 3.21 1.06 6.44 1 10h-2c-0.25-0.78-0.49-1.57-0.75-2.38-1.45-3.03-2.19-3.45-5.25-4.62-0.6-0.34-1.19-0.67-1.81-1.02-3.28-1.47-6.5-1.43-10-1.64-0.7-0.11-1.41-0.22-2.14-0.34l-1-2c7.32-2.44 15-1.02 22 2z" fill="#7A7C80"/>
<path transform="translate(491,1119)" d="m0 0c1.25 3.74 0.77 6.17 0 10-2 2-2 2-5.77 2.23-1.54 0-3.07-0.02-4.61-0.04h-2.32c-3.62-0.03-6.79-0.21-10.3-1.19l2-4 2 1c4.62 0.43 8.71 0.56 13-1.31 2.22-1.71 2.22-1.71 4-4.69h2v-2z" fill="#909398"/>
<path transform="translate(1121,1116)" d="m0 0 3 2c0.19 3.62 0.19 3.62 0 7l4 2v2l2 1c-3.05 0.88-5.83 1.16-9 1.19-0.85 0.01-1.69 0.03-2.56 0.04-2.59-0.24-4.21-0.92-6.44-2.23 0.74-0.66 1.48-1.32 2.25-2 3.21-3.18 4.93-6.91 6.75-11z" fill="#6E7073"/>
<path transform="translate(563,929)" d="m0 0h1c0.81 6.69 1.11 13.3 1.12 20.1 0.01 0.75 0.01 1.5 0.02 2.28-0.02 5.41-0.02 5.41-1.14 7.66-0.15 1.74-0.25 3.48-0.32 5.23-0.04 1.03-0.08 2.06-0.12 3.12-0.04 1.08-0.08 2.16-0.12 3.27-0.05 1.09-0.09 2.18-0.13 3.3-0.11 2.69-0.21 5.39-0.31 8.08h-1c-0.03-6.91-0.04-13.8-0.05-20.7-0.01-2.34-0.02-4.69-0.03-7.04-0.01-3.38-0.01-6.75-0.02-10.1 0-1.05-0.01-2.1-0.01-3.19v-2.97c-0.01-0.86-0.01-1.72-0.01-2.61 0.12-2.25 0.49-4.18 1.12-6.34z" fill="#0044B5"/>
<path transform="translate(1090,969)" d="m0 0c2.97 0.5 2.97 0.5 6 1 0.12 1.18 0.12 1.18 0.25 2.38 0.48 2.77 0.48 2.77 2.81 3.93 0.64 0.23 1.28 0.46 1.94 0.69-0.02 1.11-0.04 2.23-0.06 3.38-0.2 3.45-0.2 3.45 1.06 5.62h-2l-1 2c-1.46-2.65-2-3.89-2-7-0.64-0.25-1.28-0.5-1.94-0.75-2.06-1.25-2.06-1.25-2.81-3.37-0.12-0.93-0.12-0.93-0.25-1.88l-4-1v-3h2v-2z" fill="#0048AE"/>
<path transform="translate(512,1077)" d="m0 0c13.4-0.21 13.4-0.21 17 1 2.83 4.12 2.19 9.19 2 14-4.94-3-7.2-7.61-9-13-5.94 0.49-5.94 0.49-12 1l2-1v-2z" fill="#83868A"/>
<path transform="translate(660,952)" d="m0 0c0.76 2.27 1.06 3.71 0.54 6.07-0.75 4.05-0.72 8.01-0.73 12.1-0.01 0.82-0.02 1.64-0.03 2.48-0.01 2.11 0.1 4.22 0.22 6.33l2 2h-2v3c0.99 0.33 1.98 0.66 3 1l-4 2c-3.37-11.7-4.17-22.1-1-34l2-1z" fill="#0147B8"/>
<path transform="translate(764,922)" d="m0 0c5.78-0.12 11.3 0.17 17 1v1c-2.31 0.33-4.62 0.66-7 1 0.99 1.49 0.99 1.49 2 3 0.23 1.9 0.23 1.9 0.2 4.01-0.01 1.14-0.01 1.14-0.02 2.3-0.02 0.78-0.04 1.57-0.06 2.38 0 0.79-0.01 1.59-0.02 2.41-0.03 1.97-0.06 3.93-0.1 5.9l-3-2c-0.36-2.55-0.56-4.88-0.62-7.44-0.17-5.35-0.17-5.35-1.38-10.6l-8-1 1-2z" fill="#0553C0"/>
<path transform="translate(480 1077)" d="m0 0c0.78 0.04 1.55 0.07 2.35 0.11 5.78 0.33 5.78 0.33 8.03 2.58 0.12 3.62 0.12 3.62 0 7-2.99-1-4.69-1.58-6.63-4.13-3.47-2.74-6.53-2.04-10.8-1.72-2.55-0.15-2.55-0.15-4.39-1.65-0.39-0.49-0.77-0.99-1.16-1.5 4.31-1.24 8.18-0.96 12.6-0.69z" fill="#8D9095"/>
<path transform="translate(1065,953)" d="m0 0 2 1c-0.72 3.23-1.81 6.19-3.06 9.25-0.36 0.89-0.73 1.78-1.1 2.7-0.28 0.68-0.55 1.35-0.84 2.05h-2c-0.12 0.95-0.25 1.9-0.38 2.88-0.62 3.12-0.62 3.12-2.62 5.12-0.99 0.33-1.98 0.66-3 1 0.5-4.37 1.39-6.55 4-10 0.7-2.32 1.37-4.66 2-7 0.62-1.35 1.27-2.7 2-4h2l1-3z" fill="#0850C1"/>
<path transform="translate(867,519)" d="m0 0c4.31-0.03 8.62-0.05 12.9-0.06 1.21-0.01 2.42-0.02 3.67-0.03 6.56-0.02 12.9 0.2 19.4 1.09v2h-35l-1-3z" fill="#E7ECF0"/>
<path transform="translate(745,1116)" d="m0 0 2 1v9h2c0.99 1.32 1.98 2.64 3 4h-17c1-2 1-2 2.89-2.8 2.84-1.62 3.5-3.39 4.86-6.32 0.43-0.92 0.86-1.83 1.3-2.76 0.31-0.7 0.63-1.4 0.95-2.12z" fill="#737578"/>
<path transform="translate(1130,484)" d="m0 0c2 0 2 0 4.5 2.31 2.5 2.69 2.5 2.69 4.5 5.69 0.99 0.33 1.98 0.66 3 1v2l2 1 1-1 4 3c-1 2-1 2-4 4-3.1-0.1-3.97-0.97-6.12-3.25-1.88-2.75-1.88-2.75-2.88-5.44-0.77-2.48-0.77-2.48-3.06-3.31-0.64-0.33-1.28-0.66-1.94-1-0.75-2.62-0.75-2.62-1-5z" fill="#0050BF"/>
<path transform="translate(936,1006)" d="m0 0c2 2 2 2 2 6-15.7 3.44-15.7 3.44-23 3v-3c2.97-0.99 4.79-1.07 7.88-1 3.52 0.04 6.69-0.09 10.1-1l1-3 2-1z" fill="#0A53C2"/>
<path transform="translate(1070 1077)" d="m0 0h2.46c5.86 0.05 11.4 0.59 17 2.19v2c-0.87-0.19-1.73-0.37-2.62-0.57-3.27-0.6-3.27-0.6-6.04 0.07-4.16 0.62-8.03 0.37-12.2 0.06-0.78-0.05-1.56-0.1-2.37-0.16-1.92-0.13-3.83-0.26-5.75-0.4l-1-2c3.28-1.64 6.9-1.19 10.5-1.19z" fill="#8F9297"/>
<path transform="translate(1208,1006)" d="m0 0 1 3-2 2c1.98 0.66 3.96 1.32 6 2v1c-3.6 0.09-7.21 0.14-10.8 0.19-1.54 0.04-1.54 0.04-3.11 0.07-1.47 0.02-1.47 0.02-2.97 0.03-0.91 0.02-1.82 0.03-2.75 0.05-2.78-0.4-3.64-1.18-5.36-3.34 1.79-0.16 1.79-0.16 3.61-0.33 1.57-0.16 3.14-0.32 4.7-0.48 0.79-0.07 1.57-0.14 2.38-0.22 0.76-0.08 1.52-0.16 2.3-0.24 0.69-0.07 1.39-0.14 2.11-0.21 2.34-0.64 3.34-1.7 4.9-3.52z" fill="#0150C1"/>
<path transform="translate(980 1077)" d="m0 0c0.74 0.04 1.48 0.07 2.25 0.11 1.88 0.11 3.75 0.34 5.63 0.58 1.6 3.21 1.05 6.43 1 10-2.9-1.18-4.15-2.17-6.19-4.63-3.56-3-5.53-2.8-10-2.55-0.59 0.06-1.19 0.12-1.79 0.18v-2c-0.66-0.33-1.33-0.66-2-1 3.79-1.27 7.19-0.94 11.1-0.69z" fill="#86898E"/>
<path transform="translate(1089,974)" d="m0 0c3.77 1.26 4.08 2.66 6 6l2 1c1.63 3.35 2 5.19 2 9h-3c-1.74-3.23-2.89-6.51-4-10h-10v-2h3v-2h4v-2z" fill="#0151C1"/>
<path transform="translate(532,976)" d="m0 0 4 2c-0.75 7.62-0.75 7.62-3 11-2.62 0.19-2.62 0.19-5 0-1.34-5.38-1.34-5.38 0.31-8.38 1.69-1.62 1.69-1.62 3.69-1.62v-3z" fill="#004BB4"/>
<path transform="translate(600,961)" d="m0 0 2 1c-0.99 1.32-1.98 2.64-3 4l5-3-1 4h2v5c-4.75 1.12-4.75 1.12-7 0-2.1 0.4-2.1 0.4-4 1l-1-4 4-1v-2l-2-1h3l2-4z" fill="#0149AE"/>
<path transform="translate(505,1009)" d="m0 0 1 3c-6.11 2.75-11 4.14-17.8 4.06-1.47-0.01-1.47-0.01-2.96-0.02-1.1-0.02-1.1-0.02-2.23-0.04l1-4c1.01-0.05 2.03-0.1 3.07-0.15 1.35-0.07 2.7-0.15 4.05-0.23 0.67-0.03 1.34-0.06 2.02-0.09 4.26-0.25 7.88-1.01 11.9-2.53z" fill="#145EC7"/>
<path transform="translate(1020,1214)" d="m0 0c1.94-0.08 3.87-0.14 5.81-0.19 1.08-0.03 2.16-0.07 3.27-0.1 2.92 0.29 2.92 0.29 5.92 3.29h-52v-1c12.2-0.33 24.4-0.66 37-1v-1z" fill="#363938"/>
<path transform="translate(995,954)" d="m0 0c3.24 3.24 3 6.53 3 11 0.99 1.49 0.99 1.49 2 3-0.99 0.33-1.98 0.66-3 1v11l-2 1c-1.66-3.33-1.14-7.03-1.12-10.7-0.01-0.79-0.01-1.58-0.02-2.39 0.01-4.75 0.35-9.24 1.14-13.9z" fill="#004EC0"/>
<path transform="translate(662,424)" d="m0 0h9v2h14v1h-50l-1 2-1-3h29v-2z" fill="#0041BB"/>
<path transform="translate(704,920)" d="m0 0c7.64-0.16 15.4-0.17 23 1l2 2c-0.38 2.62-0.38 2.62-1 5-0.48-0.27-0.95-0.53-1.44-0.8-7.3-3.69-14.5-4.39-22.6-5.2v-2z" fill="#004FC0"/>
<path transform="translate(1211,1117)" d="m0 0c1.3 2.6 0.93 4.19 0.62 7.06-0.09 0.9-0.18 1.8-0.27 2.73-0.35 2.21-0.35 2.21-1.35 3.21-1.85 0.07-3.71 0.08-5.56 0.06-1.01-0.01-2.03-0.02-3.07-0.02-0.78-0.02-1.56-0.03-2.37-0.04 1-3 1-3 3.19-4.25 3.72-2.32 6.1-5.35 8.81-8.75z" fill="#707275"/>
<path transform="translate(468,1099)" d="m0 0 1 2h5v2h6v-2l5-2c2.12 5.62 2.12 5.62 1 9l-5-2v-2c-6.44 0.49-6.44 0.49-13 1v-6z" fill="#8F9398"/>
<path transform="translate(1167,1011)" d="m0 0c3.44-0.09 6.87-0.14 10.3-0.19 0.98-0.02 1.96-0.05 2.96-0.07 0.94-0.01 1.88-0.02 2.84-0.03 0.87-0.02 1.73-0.03 2.62-0.05 2.72 0.41 3.57 1.24 5.27 3.34-7.47 0.75-14.6 1.46-22 0l-2-3z" fill="#0453C2"/>
<path transform="translate(792,1009)" d="m0 0c2.25 0.11 4.5 0.24 6.75 0.38 1.88 0.1 1.88 0.1 3.8 0.21 3.06 0.36 4.87 0.81 7.45 2.41l-1 2c-2.8 0.52-2.8 0.52-6.31 0.81-1.15 0.11-2.3 0.22-3.49 0.33-3.52-0.15-4.82-0.58-7.2-3.14v-3z" fill="#0043BC"/>
<path transform="translate(1176 921)" d="m0 0c1.19 0.01 1.19 0.01 2.4 0.02 1.28 0 1.28 0 2.58 0.01 0.9 0 1.8 0.01 2.72 0.02 0.91 0.01 1.81 0.01 2.74 0.01 2.23 0.02 4.47 0.03 6.7 0.05l2 4c-2.91 0.08-5.83 0.14-8.75 0.19-1.24 0.04-1.24 0.04-2.5 0.08-6.17 0.07-6.17 0.07-9.33-1.78-0.47-0.49-0.93-0.98-1.42-1.49 1-1 1-1 2.86-1.11z" fill="#2463CA"/>
<path transform="translate(745 1e3)" d="m0 0c2.15 3.23 2.2 4.28 2 8-6.48 2.35-11.2 3.38-18 2l1-3c4.77-1.59 9.99-1 15-1v-6z" fill="#145EC7"/>
<path transform="translate(793,628)" d="m0 0c0.1 7.09 0.1 14-1 21h-1l-1-11h-3l1-5h-2v-2c2.56-2.3 3.48-3 7-3z" fill="#004EC0"/>
<path transform="translate(473,1006)" d="m0 0c3.78 1.81 7.37 3.91 11 6v3c-1.62 0.08-3.25 0.14-4.88 0.19-1.35 0.05-1.35 0.05-2.74 0.1-1.18-0.14-1.18-0.14-2.38-0.29l-2-3c0.35-0.62 0.7-1.24 1.06-1.88 0.31-0.7 0.62-1.4 0.94-2.12l-1-2z" fill="#115BC6"/>
<path transform="translate(850,1088)" d="m0 0h1c0.98 10 1.11 19.9 1 30-1.48-1.14-1.48-1.14-3-3-0.33-2.64-0.33-2.64-0.25-5.81 0.03-1.15 0.05-2.29 0.08-3.47 0.27-5.92 0.67-11.8 1.17-17.7z" fill="#9CA0A7"/>
<path transform="translate(949,951)" d="m0 0c4.59 3.44 4.93 4.55 6 10 0.14 2.69 0.09 5.3 0 8l-4 2-2-20z" fill="#0049B2"/>
<path transform="translate(817,922)" d="m0 0v2l4 1c-5.04 2.07-9.62 2.46-15 2l-2-1v-2c4.5-1.76 8.18-2.19 13-2z" fill="#0147BB"/>
<path transform="translate(903,1078)" d="m0 0 15 1v1c-1.58 0.09-1.58 0.09-3.19 0.19-4.47 0.95-5.93 2.34-8.81 5.81l-1 2-2-1v-9z" fill="#727477"/>
<path transform="translate(458,1082)" d="m0 0c0.99 0.33 1.98 0.66 3 1l-1 43h-1l-1-44z" fill="#D5DAE1"/>
<path transform="translate(512,933)" d="m0 0c1.94 0.81 1.94 0.81 4 2l1 3h2v8c-3.99-2.05-6.21-3.83-8-8 0.31-2.81 0.31-2.81 1-5z" fill="#0149B1"/>
<path transform="translate(1e3 901)" d="m0 0v3l-2 2 2 2-12 5c0-3 0-3 1.75-5 3.24-2.88 6.31-5.17 10.2-7z" fill="#064CBC"/>
<path transform="translate(1179,1109)" d="m0 0v20c-3-3-3-3-3.29-6.79 0.02-1.47 0.05-2.93 0.1-4.4 0.02-0.75 0.03-1.5 0.04-2.27 0.04-1.85 0.09-3.69 0.15-5.54 2-1 2-1 3-1z" fill="#93969B"/>
<path transform="translate(728,1010)" d="m0 0 2 1-1 2c0.99 0.33 1.98 0.66 3 1-7.1 1.34-13.8 2.24-21 2v-1c1.98-0.33 3.96-0.66 6-1l-2-2c1.28-0.09 1.28-0.09 2.59-0.18 1.66-0.13 1.66-0.13 3.35-0.26 1.1-0.08 2.2-0.16 3.34-0.24 2.63-0.02 2.63-0.02 3.72-1.32z" fill="#0047BD"/>
<path transform="translate(1076,926)" d="m0 0 2 4v-2h2l1 4c-0.99 0.5-0.99 0.5-2 1l-1 3h-2l-1 2h-3c-1-3-1-3 0-5.26 0.47-0.8 0.95-1.6 1.44-2.43 0.47-0.81 0.94-1.61 1.43-2.45 0.37-0.61 0.75-1.23 1.13-1.86z" fill="#0048B0"/>
<path transform="translate(583,921)" d="m0 0h16l1 5c-1.02-0.22-1.02-0.22-2.06-0.44-5-0.95-9.85-1.71-14.9-1.56v-3z" fill="#0144BC"/>
<path transform="translate(984,1098)" d="m0 0c1.56 1.06 1.56 1.06 3 3-0.31 3.69-0.31 3.69-1 7-0.66-0.47-1.32-0.95-2-1.44-3.79-1.97-6.76-2.2-11-2.56 2-2 2-2 3.95-2.2 2.01 0.07 4.03 0.13 6.05 0.2l1-4z" fill="#92959A"/>
<path transform="translate(959,1080)" d="m0 0h2c1.38 2.77 1.42 5.3 1.69 8.38 0.1 1.14 0.21 2.28 0.32 3.46-0.01 3.11-0.35 4.58-2.01 7.16v-3h-2v-16z" fill="#93969B"/>
<path transform="translate(994,1009)" d="m0 0c3.78 1.09 6.47 1.91 9 5-3.63 1.26-6.26 0.64-10 0-3-0.09-6-0.06-9 0v-2c0.96-0.2 0.96-0.2 1.93-0.4 0.83-0.18 1.66-0.36 2.51-0.54 0.82-0.17 1.64-0.35 2.49-0.52 2.05-0.35 2.05-0.35 3.07-1.54z" fill="#3C78D0"/>
<path transform="translate(597,966)" d="m0 0v2l-3 2c0.34 2.47 0.34 2.47 1 5l2 1h-4c-1.56-2.38-1.56-2.38-3-5l-3-2v-2c3.47-1.16 6.36-1.07 10-1z" fill="#0146BB"/>
<path transform="translate(1032,1109)" d="m0 0h17v4c-2.47-0.99-2.47-0.99-5-2l-3 3c-3.08-1.2-6.06-2.48-9-4v-1z" fill="#91959A"/>
<path transform="translate(715,1012)" d="m0 0c1.77 1.52 1.77 1.52 3 3-2.27 0.22-4.54 0.43-6.81 0.62-1.9 0.18-1.9 0.18-3.83 0.36-3.36 0.02-3.36 0.02-6.36-1.98 4.41-2.28 9.12-2.85 14-2z" fill="#0F59C5"/>
<path transform="translate(824,1006)" d="m0 0h3c2 2 2 2 2.12 5.12-0.04 0.95-0.08 1.9-0.12 2.88-2.31 0.33-4.62 0.66-7 1 0.88-7.88 0.88-7.88 2-9z" fill="#1760C9"/>
<path transform="translate(946,935)" d="m0 0c0.1 0.64 0.21 1.28 0.31 1.94 0.23 0.68 0.46 1.36 0.69 2.06 0.99 0.33 1.98 0.66 3 1l1 10c-4.19-4.19-6.31-7.28-8-13h3v-2z" fill="#0048B0"/>
<path transform="translate(541,1078)" d="m0 0c3.1 0.78 5.25 1.53 8 3h-2c-0.27 0.78-0.54 1.57-0.81 2.38-1.19 2.62-1.19 2.62-4.19 4.62l-2-1 1-9z" fill="#828589"/>
<path transform="translate(601,984)" d="m0 0c2.34 0.29 4.67 0.62 7 1v7c-0.99 0.5-0.99 0.5-2 1v-2c-0.93-0.09-0.93-0.09-1.88-0.19-2.12-0.81-2.12-0.81-3.37-3.37-0.25-0.81-0.5-1.61-0.75-2.44l1-1z" fill="#0048AD"/>
<path transform="translate(1213 1e3)" d="m0 0c1.86 3.13 2.2 5.37 2 9-0.99 0.5-0.99 0.5-2 1-2.36-0.94-4.7-1.93-7-3 1.25-2 1.25-2 3-4h4v-3z" fill="#1A63CA"/>
<path transform="translate(519,981)" d="m0 0c3 1 3 1 4.75 3.44 0.62 1.27 0.62 1.27 1.25 2.56l-1 2h-2c-0.99 2.64-1.98 5.28-3 8h-2l2-16z" fill="#0049BD"/>
<path transform="translate(1073,941)" d="m0 0h1c0.29 1.05 0.58 2.1 0.88 3.19 0.89 3.04 1.88 5.9 3.12 8.81h-3v-4h-3l-1 4h-2c0.66-4.39 2.19-7.98 4-12z" fill="#DFE6ED"/>
<path transform="translate(986,922)" d="m0 0c5.94 0.33 11.9 0.66 18 1v1l-8 1-1 4-3-2v-2c-2.97-0.5-2.97-0.5-6-1v-2z" fill="#024ABF"/>
<path transform="translate(912 922)" d="m0 0c0.85-0.04 1.7-0.07 2.57-0.11 2.31 0.42 2.31 0.42 4.11 2.44 0.39 0.66 0.79 1.31 1.2 1.98-6.36 0.2-11.9-0.37-18-2v-1c3.35-0.89 6.66-1.17 10.1-1.31z" fill="#0247BE"/>
<path transform="translate(703,918)" d="m0 0c2.63-0.05 5.25-0.09 7.88-0.12 0.74-0.02 1.49-0.04 2.26-0.06 1.95-0.01 3.91 0.08 5.86 0.18l2 2c-1.75 1.75-4 1.13-6.32 1.14-0.7-0.01-1.4-0.01-2.12-0.02-1.04 0.01-1.04 0.01-2.1 0.02-5.21-0.01-5.21-0.01-7.46-1.14v-2z" fill="#ACBBD4"/>
<path transform="translate(836,76)" d="m0 0c5.45-0.1 10.6-0.13 16 1v2h-16v-3z" fill="#E2E8ED"/>
<path transform="translate(1128,1107)" d="m0 0 15 1v3c-5.02 1.13-8.98 0.78-14 0l-1-4z" fill="#94989D"/>
<path transform="translate(1128,1101)" d="m0 0 2 1c-0.09 1.46-0.2 2.92-0.31 4.38-0.06 0.81-0.12 1.62-0.18 2.46-0.51 2.16-0.51 2.16-3.51 4.16-1.19 2.05-1.19 2.05-2 4h-2c0.75-4.75 0.75-4.75 3-7 0.6-1.52 1.14-3.07 1.62-4.62 0.4-1.23 0.4-1.23 0.79-2.48 0.2-0.63 0.39-1.25 0.59-1.9z" fill="#797B7E"/>
<path transform="translate(470,1083)" d="m0 0h1v18h-2c-1.32-2.64-1.1-4.68-1.06-7.62 0.01-1.01 0.02-2.01 0.02-3.04 0.02-0.77 0.03-1.55 0.04-2.34h2v-5z" fill="#DFE4EA"/>
<path transform="translate(580 1078)" d="m0 0c2.05 0.03 4.1 0.07 6.15 0.1v11h-2v-6c-0.6-0.11-1.19-0.21-1.81-0.31-2.47-0.78-3.51-1.76-5.19-3.69 1-1 1-1 2.85-1.1z" fill="#727477"/>
<path transform="translate(752,1107)" d="m0 0 1 2c0.83-0.25 0.83-0.25 1.67-0.5 2.6-0.56 4.93-0.6 7.58-0.56 0.89 0.01 1.78 0.02 2.7 0.02 0.68 0.02 1.35 0.03 2.05 0.04l1 3c-5.61 0.83-10.4 1.07-16 0v-4z" fill="#93969B"/>
<path transform="translate(1035,1010)" d="m0 0c0.72 0.31 1.43 0.61 2.17 0.93 3.52 1.33 6.39 1.27 10.1 1.19 1.26-0.01 2.51-0.03 3.8-0.05 0.96-0.02 1.91-0.05 2.89-0.07l1 2c-7.18 1.01-13.8 0.89-21 0l-1-3 2-1z" fill="#004FC0"/>
<path transform="translate(1179,952)" d="m0 0 2 1-1 4h-2c0.83 2.17 0.83 2.17 3 3-0.99 0.33-1.98 0.66-3 1v2l-5 1c-0.31-2.19-0.31-2.19 0-5 2.44-2.69 2.44-2.69 5-5l1-2z" fill="#0046B6"/>
<path transform="translate(741,930)" d="m0 0h3c0.85 5.08 1.09 9.85 1 15-0.99-0.33-1.98-0.66-3-1l-1-14z" fill="#E0E5EA"/>
<path transform="translate(688,425)" d="m0 0c0.03 1.46 0.05 2.92 0.06 4.38 0.01 0.81 0.03 1.62 0.04 2.46-0.1 2.16-0.1 2.16-1.1 4.16l-2-1v-9h-14v-1c1.89-0.2 3.79-0.38 5.69-0.56 1.58-0.16 1.58-0.16 3.2-0.32 2.92-0.11 5.28 0.17 8.11 0.88z" fill="#0048B4"/>
<path transform="translate(501,1114)" d="m0 0 4 4c-0.25 3.62-0.25 3.62-1 7v2h4v2c-4.75-0.88-4.75-0.88-7-2v-13z" fill="#8C8F94"/>
<path transform="translate(888,1088)" d="m0 0 2 1v15c-3-3-3-3-3.33-5.38 0.03-0.86 0.05-1.73 0.08-2.62 0.02-0.87 0.03-1.73 0.05-2.62 0.2-2.38 0.2-2.38 1.2-5.38z" fill="#BAC2CC"/>
<path transform="translate(943 1078)" d="m0 0c3.06 0.12 3.06 0.12 5.06 1.12-0.33 2.98-0.66 5.95-1 9-0.33-1.31-0.66-2.64-1-4-1.88-1.1-1.88-1.1-4-2-1.75-1.62-1.75-1.62-3-3 1-1 1-1 3.94-1.12z" fill="#707275"/>
<path transform="translate(698,921)" d="m0 0c2.97 0.5 2.97 0.5 6 1v1c-4.81 1.76-8.83 3.15-14 3-2.25 0.92-2.25 0.92-4 2l1-4c1.46-0.36 2.92-0.71 4.38-1.06 1.21-0.3 1.21-0.3 2.46-0.6 2.16-0.34 2.16-0.34 4.16 0.66v-2z" fill="#0043BA"/>
<path transform="translate(752,1101)" d="m0 0h3c-1.74 5.81-3.81 10.8-7 16l-2-4 2-2c0.76-1.69 1.46-3.4 2.12-5.12 0.53-1.37 0.53-1.37 1.08-2.76 0.26-0.7 0.53-1.4 0.8-2.12z" fill="#76787C"/>
<path transform="translate(521,963)" d="m0 0c2.26 3.59 2.21 6.57 2.12 10.8-0.01 1.17-0.03 2.34-0.05 3.55-0.03 1.33-0.03 1.33-0.07 2.7h-2c-1.82-5.45-1.43-11.5 0-17z" fill="#0041BC"/>
<path transform="translate(1193,928)" d="m0 0 1 3c-1.23 2.34-2.49 4.48-3.94 6.69-0.38 0.6-0.77 1.21-1.17 1.84-0.95 1.49-1.92 2.98-2.89 4.47l-3-2c1.72-3.03 3.29-5.76 6-8h2l2-6z" fill="#0047BD"/>
<path transform="translate(478,924)" d="m0 0c-2.12 1.03-4.25 2.05-6.38 3.06-1.77 0.86-1.77 0.86-3.58 1.73-1 0.4-2.01 0.8-3.04 1.21l-2-1v-2h3v-2c1.24-0.56 2.49-1.1 3.75-1.62 0.7-0.31 1.39-0.61 2.11-0.92 2.72-0.59 3.83 0.09 6.14 1.54z" fill="#0345BD"/>
<path transform="translate(554,922)" d="m0 0h16c-1 2-1 2-2.82 2.7-5.49 1.31-8.9 1.32-14.2-0.7l1-2z" fill="#0044B9"/>
<path transform="translate(799,75)" d="m0 0h14v2c0.99 0.33 1.98 0.66 3 1-2.27 0.08-4.54 0.14-6.81 0.19-1.9 0.05-1.9 0.05-3.83 0.1-3.36-0.29-3.36-0.29-6.36-3.29z" fill="#E4E9ED"/>
<path transform="translate(491,1119)" d="m0 0c1.23 3.69 0.64 6.21 0 10h-6c0.6-3.34 1.74-5.46 4-8h2v-2z" fill="#707275"/>
<path transform="translate(484,1012)" d="m0 0c6.62-0.12 6.62-0.12 10 1v3h-11l1-4z" fill="#3271CF"/>
<path transform="translate(657,971)" d="m0 0h2c0.2 2.02 0.39 4.04 0.59 6.05 0.27 2.18 0.27 2.18 2.41 3.95h-2v3c0.99 0.33 1.98 0.66 3 1l-4 2c-1.87-5.49-2.24-10.2-2-16z" fill="#024ABA"/>
<path transform="translate(764,922)" d="m0 0c5.78-0.12 11.3 0.17 17 1v1c-6.73 1.79-11.4 2.22-18 0l1-2z" fill="#0345BD"/>
<path transform="translate(1164,921)" d="m0 0c1.62-0.08 3.25-0.14 4.88-0.19 0.9-0.03 1.8-0.07 2.74-0.1 1.18 0.14 1.18 0.14 2.38 0.29l2 3c-1 1-1 1-3.07 1.1-0.82-0.01-1.64-0.03-2.49-0.04-0.83-0.01-1.66-0.02-2.51-0.02-0.63-0.02-1.27-0.03-1.93-0.04l-2-4z" fill="#0045BD"/>
<path transform="translate(522,1080)" d="m0 0c4.75 0.75 4.75 0.75 7 3 0.12 2.62 0.12 2.62 0 5h2l-1 4c-3.77-3.2-5.82-7.64-8-12z" fill="#93969B"/>
<path transform="translate(392,924)" d="m0 0c3.5 0.19 3.5 0.19 7 1 2.21 3.31 2.22 4.34 2.12 8.19-0.01 0.9-0.03 1.8-0.05 2.73-0.03 1.03-0.03 1.03-0.07 2.08h-1l-1-10c-4.45-0.99-4.45-0.99-9-2l2-2z" fill="#E3E8ED"/>
<path transform="translate(879,922)" d="m0 0c5.78-0.12 11.3 0.17 17 1v1c-0.95 0.12-1.9 0.25-2.88 0.38-3.21 0.34-3.21 0.34-5.12 2.62-0.54-0.31-1.07-0.62-1.62-0.94-2.78-1.24-5.38-1.65-8.38-2.06l1-2z" fill="#0A4FC1"/>
<path transform="translate(1020,1214)" d="m0 0c1.94-0.08 3.87-0.14 5.81-0.19 1.08-0.03 2.16-0.07 3.27-0.1 2.92 0.29 2.92 0.29 4.81 1.8 0.36 0.49 0.73 0.98 1.11 1.49-2.12 0.08-4.25 0.14-6.38 0.19-1.18 0.03-2.36 0.07-3.58 0.1-1.51-0.14-1.51-0.14-3.04-0.29l-2-3z" fill="#373A39"/>
<path transform="translate(1023,1127)" d="m0 0c1.98 0.01 3.96 0.11 5.94 0.25 1.62 0.1 1.62 0.1 3.27 0.2 1.38 0.27 1.38 0.27 2.79 0.55l2 3h-11v-2l-4-1 1-1z" fill="#A4A9B0"/>
<path transform="translate(1072,1105)" d="m0 0c0.99 0.49 0.99 0.49 2 1l-1 20h2l2 5c-2.47-1.17-2.47-1.17-5-3-0.57-2.45-0.57-2.45-0.49-5.32 0.02-1.03 0.03-2.06 0.05-3.12 0.04-1.07 0.08-2.14 0.13-3.25 0.03-1.62 0.03-1.62 0.07-3.28 0.05-2.68 0.14-5.35 0.24-8.03z" fill="#929499"/>
<path transform="translate(890,1089)" d="m0 0h1v22l-2 1-1-8h2v-15z" fill="#93969B"/>
<path transform="translate(889,994)" d="m0 0 2 1v12h-2c-1.25-2.5-1.13-4.27-1.12-7.06-0.01-0.9-0.01-1.8-0.01-2.73 0.13-2.21 0.13-2.21 1.13-3.21z" fill="#0041BC"/>
<path transform="translate(704,920)" d="m0 0c6.37-0.23 11.9 0.01 18 2l1 2-19-2v-2z" fill="#0042BB"/>
<path transform="translate(981,692)" d="m0 0v3c-4.65 2.85-8.7 4.7-14 6v-3c3.71-1.98 6.89-3.22 11-4l3-2z" fill="#0147B9"/>
<path transform="translate(558,1086)" d="m0 0h3v14c-2.46-3.69-3.12-5.27-3.06-9.62 0.01-0.82 0.02-1.64 0.02-2.48 0.02-0.63 0.03-1.25 0.04-1.9z" fill="#919499"/>
<path transform="translate(1188,1011)" d="m0 0c5.74-0.2 10.6-0.27 16 2v1c-2.1 0.08-4.21 0.14-6.31 0.19-1.17 0.03-2.35 0.07-3.55 0.1-3.14-0.29-3.14-0.29-5.06-1.8-0.36-0.49-0.71-0.98-1.08-1.49z" fill="#0041BC"/>
<path transform="translate(908,1009)" d="m0 0c4.46 0.99 4.46 0.99 9 2l-2 4h-11l4-2v-1-3z" fill="#0042BA"/>
<path transform="translate(1011,995)" d="m0 0h1c1.04 5.05 1.1 9.87 1 15-0.99-0.33-1.98-0.66-3-1-0.03-1.58-0.05-3.17-0.06-4.75-0.01-0.88-0.03-1.76-0.04-2.67 0.09-2.36 0.43-4.32 1.1-6.58z" fill="#E2E7EC"/>
<path transform="translate(795,968)" d="m0 0c2.08-0.11 4.17-0.19 6.25-0.25 1.74-0.07 1.74-0.07 3.52-0.14 3.23 0.39 3.23 0.39 7.23 4.39-5.61-0.66-11.2-1.32-17-2v-2z" fill="#E8EDF1"/>
<path transform="translate(821,931)" d="m0 0c2.44 0.94 2.44 0.94 5 3 0.75 2.99 0.93 5.93 1 9-2.95-2.74-5.23-5.36-7-9l1-3z" fill="#024FC1"/>
<path transform="translate(1134,486)" d="m0 0c3.89 0.58 6.11 2.42 9 5 2 3 2 3 2 6-2-1-2-1-3-4-0.6-0.14-1.2-0.29-1.81-0.44-2.96-0.76-4.24-2.26-6.19-4.56v-2z" fill="#0049B0"/>
<path transform="translate(969,1126)" d="m0 0c0.99 0.49 0.99 0.49 2 1 2.04 0.23 4.08 0.41 6.12 0.56 1.65 0.13 1.65 0.13 3.33 0.26 0.84 0.06 1.68 0.12 2.55 0.18l-1 2c-1.96 0.45-1.96 0.45-4.38 0.69-0.79 0.08-1.58 0.17-2.39 0.26-2.23 0.05-2.23 0.05-5.23-0.95-0.69-2.06-0.69-2.06-1-4z" fill="#808387"/>
<path transform="translate(418,1128)" d="m0 0c1.94-0.03 3.87-0.05 5.81-0.06 1.08-0.01 2.16-0.03 3.27-0.04 2.92 0.1 2.92 0.1 5.92 1.1v2h-10v-2h-5v-1z" fill="#A0A4AA"/>
<path transform="translate(1094,980)" d="m0 0c3 1 3 1 4.19 3.31 0.81 2.69 0.81 2.69 0.81 6.69h-3c-1.41-2.63-2.51-5.05-3-8l1-2z" fill="#004BBF"/>
<path transform="translate(929,925)" d="m0 0c2.97 0.33 5.94 0.66 9 1l-1 2c2.48 0.99 2.48 0.99 5 2v2c-3.51 0.4-4.72 0.21-7.62-1.94-0.79-0.68-1.57-1.36-2.38-2.06-0.99-0.33-1.98-0.66-3-1v-2z" fill="#0045B7"/>
<path transform="translate(484,920)" d="m0 0h13l1 3-15-1 1-2z" fill="#0245BD"/>
<path transform="translate(1161,1009)" d="m0 0 10 3c-4 3-4 3-6.36 3.07-0.79-0.12-1.58-0.25-2.39-0.38-0.8-0.12-1.6-0.24-2.42-0.37-0.61-0.1-1.21-0.21-1.83-0.32 0.99-0.33 1.98-0.66 3-1v-4z" fill="#0043BC"/>
<path transform="translate(804 967)" d="m0 0c0.59 0.48 1.18 0.96 1.79 1.45-5.74 0.21-10.6 0.27-16-2v-1c4.97-1.35 9.86-1.49 14.2 1.55z" fill="#004DBF"/>
<path transform="translate(776,75)" d="m0 0c5.96-0.29 5.96-0.29 8 0l3 3h-17v-1c1.98-0.33 3.96-0.66 6-1v-1z" fill="#C5CCD5"/>
<path transform="translate(937,1013)" d="m0 0c-1 2-1 2-2.77 2.62-2.37 0.4-4.57 0.48-6.98 0.44-0.8-0.01-1.6-0.02-2.42-0.02-0.61-0.02-1.21-0.03-1.83-0.04v-2c4.76-0.95 9.17-1.08 14-1z" fill="#EBEFF3"/>
<path transform="translate(563,929)" d="m0 0h1c0.22 1.75 0.43 3.5 0.62 5.25 0.12 0.97 0.24 1.95 0.36 2.95 0.02 2.93-0.45 4.35-1.98 6.8h-1c-0.03-1.75-0.05-3.5-0.06-5.25-0.01-0.97-0.03-1.95-0.04-2.95 0.09-2.46 0.39-4.46 1.1-6.8z" fill="#0042B8"/>
<path transform="translate(476 1077)" d="m0 0c1.2 0.15 1.2 0.15 2.42 0.31 0.61 0.08 1.21 0.17 1.83 0.25-2.62 2.62-4.51 2.66-8.09 3.05-1.91-0.05-1.91-0.05-3.91-1.49-0.33-0.51-0.66-1.03-1-1.56 3.12-0.96 5.52-0.99 8.75-0.56z" fill="#9A9DA3"/>
<path transform="translate(1052,981)" d="m0 0c1.12 1.75 1.12 1.75 2 4-0.56 2.12-0.56 2.12-2 4-2.62 1.25-2.62 1.25-5 2 0.45-1.48 0.91-2.96 1.38-4.44 0.25-0.82 0.51-1.64 0.77-2.49 0.85-2.07 0.85-2.07 2.85-3.07z" fill="#0956C3"/>
<path transform="translate(668,939)" d="m0 0 1 2c-0.93 1.33-0.93 1.33-1.88 2.69-1.77 2.77-3.03 5.22-4.12 8.31-1.33-2.2-2.03-3.53-1.88-6.12 1.16-2.48 2.45-2.77 4.88-3.88l2-3z" fill="#0045BA"/>
<path transform="translate(939 925)" d="m0 0c0.71 0.29 1.41 0.57 2.14 0.87 0.53 0.23 1.06 0.46 1.61 0.69l-2 4-1-2c-0.76-0.14-1.53-0.29-2.31-0.44-2.95-0.61-4.42-1.63-6.69-3.56 3.3-1.12 5.05-0.89 8.25 0.44z" fill="#0B57C3"/>
<path transform="translate(938,1080)" d="m0 0c3.34 0.6 5.54 1.63 8 4v4l2 1c-0.99 1.48-0.99 1.48-2 3-0.33-0.61-0.65-1.23-0.99-1.86-0.44-0.81-0.87-1.62-1.32-2.45-0.43-0.8-0.86-1.6-1.3-2.43-1.29-2.1-2.57-3.61-4.39-5.26z" fill="#979BA0"/>
<path transform="translate(454,998)" d="m0 0c2.4 2.88 4.47 5.56 6 9h-2v-2c-0.8-0.25-1.61-0.5-2.44-0.75-2.56-1.25-2.56-1.25-3.37-3.37-0.06-0.62-0.13-1.24-0.19-1.88l2-1z" fill="#0145B9"/>
<path transform="translate(393 922)" d="m0 0c0.9 0.02 1.81 0.05 2.74 0.07 1.37 0.03 1.37 0.03 2.76 0.05 0.7 0.03 1.4 0.05 2.12 0.08v2c0.99 0.33 1.98 0.66 3 1-5.15 0.09-9.92-0.16-15-1 2-2 2-2 4.38-2.2z" fill="#0144BC"/>
<path transform="translate(1193,921)" d="m0 0c6.93 0.5 6.93 0.5 14 1v1c-1.64 0.22-1.64 0.22-3.31 0.44-3.62 0.44-3.62 0.44-6.69 1.56-2.69-0.94-2.69-0.94-5-2l1-2z" fill="#0041BC"/>
<path transform="translate(891,519)" d="m0 0 12 1v2h-13l1-3z" fill="#CBD5E2"/>
<path transform="translate(615,1127)" d="m0 0 13 1v2c-3.67 1.18-7.17 1.07-11 1l-2-4z" fill="#9EA2A9"/>
<path transform="translate(980,1080)" d="m0 0c3.04-0.08 5.07 0.02 8 1v5c-3 0-3 0-4.39-1.31-1.2-1.57-2.41-3.13-3.61-4.69z" fill="#999DA2"/>
<path transform="translate(575,1080)" d="m0 0c3.34 0.56 6.03 1.35 9 3v5c-3.72-1.24-4.67-2.92-7-6l-2-2z" fill="#93969B"/>
<path transform="translate(1163,979)" d="m0 0 1 3c-0.99 1.49-0.99 1.49-2 3h-2c-0.12 0.78-0.25 1.57-0.38 2.38-0.62 2.62-0.62 2.62-2.62 4.62-0.47-3.18-0.51-5.25 1.34-7.96 1.5-1.73 3.04-3.41 4.66-5.04z" fill="#0047BE"/>
<path transform="translate(1183,946)" d="m0 0 2 1c-1.31 2.5-1.31 2.5-3 5h-3l-2 5-2-1c0.95-1.48 1.91-2.96 2.88-4.44 0.8-1.23 0.8-1.23 1.61-2.49 1.51-2.07 1.51-2.07 3.51-3.07z" fill="#004BBF"/>
<path transform="translate(1e3 901)" d="m0 0v3l-2 2 2 2-5 1c-0.62-1.88-0.62-1.88-1-4 1.95-1.95 3.53-2.85 6-4z" fill="#0653C2"/>
<path transform="translate(779,1526)" d="m0 0h10v1h-10v-1z" fill="#5E6062"/>
</svg>
