<?xml version="1.0" standalone="no"?>
<!DOCTYPE svg PUBLIC "-//W3C//DTD SVG 20010904//EN"
 "http://www.w3.org/TR/2001/REC-SVG-20010904/DTD/svg10.dtd">
<svg version="1.0" xmlns="http://www.w3.org/2000/svg"
 width="1280.000000pt" height="945.000000pt" viewBox="0 0 1280.000000 945.000000"
 preserveAspectRatio="xMidYMid meet">
<g transform="translate(0.000000,945.000000) scale(0.100000,-0.100000)"
fill="#000000" stroke="none">
<path d="M4170 9443 c-206 -2 -993 -7 -1747 -11 -1355 -7 -1373 -7 -1390 -27
-17 -19 -18 -108 -12 -2000 4 -1089 7 -2677 8 -3528 1 -1396 3 -1551 17 -1579
15 -30 15 -31 -9 -52 -20 -16 -617 -1071 -617 -1089 0 -2 -95 -170 -210 -372
l-210 -369 0 -71 c1 -87 28 -172 65 -200 15 -11 46 -38 69 -61 29 -28 57 -44
91 -53 28 -6 64 -16 81 -21 19 -6 2271 -10 6055 -10 6415 0 6080 -2 6248 44
84 23 150 97 176 196 16 62 8 173 -16 221 -23 46 -211 359 -248 413 -31 45
-443 710 -693 1121 -142 232 -159 263 -152 290 4 17 11 1598 15 3515 4 1917
10 3508 14 3536 6 45 4 54 -14 71 -21 20 -45 20 -1054 26 -1233 8 -5935 15
-6467 10z m7039 -797 c8 -10 10 -734 9 -2747 l-3 -2734 -4879 -3 c-3897 -2
-4881 0 -4888 10 -4 7 -8 1239 -8 2739 0 2106 3 2728 12 2737 19 19 9741 17
9757 -2z"/>
</g>
</svg>
